<?xml version="1.0" encoding="UTF-8" standalone="no"?>
<svg
   xmlns:dc="http://purl.org/dc/elements/1.1/"
   xmlns:cc="http://creativecommons.org/ns#"
   xmlns:rdf="http://www.w3.org/1999/02/22-rdf-syntax-ns#"
   xmlns:svg="http://www.w3.org/2000/svg"
   xmlns="http://www.w3.org/2000/svg"
   viewBox="0 0 152.98666 153.12"
   height="153.12"
   width="152.98666"
   xml:space="preserve"
   id="svg2"
   version="1.1"><metadata
     id="metadata8"><rdf:RDF><cc:Work
         rdf:about=""><dc:format>image/svg+xml</dc:format><dc:type
           rdf:resource="http://purl.org/dc/dcmitype/StillImage" /></cc:Work></rdf:RDF></metadata><defs
     id="defs6" /><g
     transform="matrix(1.3333333,0,0,-1.3333333,0,153.12)"
     id="g10"><g
       transform="scale(0.1)"
       id="g12"><path
         id="path14"
         style="fill:#ed1639;fill-opacity:1;fill-rule:nonzero;stroke:none"
         d="m 614.176,1086.85 49.336,54.44 30.293,-67.11 57.226,46.07 19.434,-71.02 63.75,36.54 8.086,-73.19 68.672,26.11 -3.438,-73.553 71.875,15.039 -14.883,-72.11 73.363,3.606 -26,-68.899 73.03,-7.929 -36.43,-63.965 70.88,-19.277 -45.98,-57.461 67,-30.145 -54.4,-49.562 61.45,-40.262 -61.49,-40.453 54.44,-49.375 -67.07,-30.313 46.03,-57.285 -70.96,-19.453 36.51,-63.789 -73.11,-8.066 26.08,-68.75 -73.479,3.457 15.019,-71.973 -72.031,14.922 3.574,-73.453 -68.828,26.007 -7.93,-73.0777 L 770.27,99.0508 751.012,28.0898 693.59,74.1289 663.473,7.05859 613.941,61.5117 573.73,0.0117188 533.313,61.5508 483.977,7.05859 453.684,74.1484 396.438,28.0898 l -19.434,71 -63.742,-36.5195 -8.098,73.1997 -68.66,-26.098 3.445,73.539 -71.902,-15.039 14.902,72.129 -73.371,-3.613 25.988,68.906 -73.0269,7.929 36.4257,63.946 -70.8789,19.297 45.9961,57.48 L 7.07031,484.363 61.4727,533.934 0,574.199 l 61.4727,40.43 -54.40239,49.375 67.05079,30.332 -46.0352,57.305 70.9649,19.453 -36.5117,63.789 73.1249,8.086 -26.086,68.73 73.481,-3.437 -15.024,71.965 72.043,-14.914 -3.574,73.427 68.828,-26.01 7.93,73.09 63.926,-36.46 19.257,70.94 57.434,-46.02 30.105,67.06 49.532,-54.43 40.222,61.49 40.438,-61.55" /><path
         id="path16"
         style="fill:#fddd1b;fill-opacity:1;fill-rule:nonzero;stroke:none"
         d="m 71.9336,574.199 c 0,277.364 224.6484,502.211 501.7894,502.211 277.132,0 501.777,-224.847 501.777,-502.211 C 1075.5,296.844 850.855,72.0195 573.723,72.0195 296.582,72.0195 71.9336,296.844 71.9336,574.199" /><path
         id="path18"
         style="fill:#fddd1b;fill-opacity:1;fill-rule:nonzero;stroke:none"
         d="m 71.9336,574.199 c 0,277.364 224.6484,502.211 501.7894,502.211 277.132,0 501.777,-224.847 501.777,-502.211 C 1075.5,296.844 850.855,72.0195 573.723,72.0195 296.582,72.0195 71.9336,296.844 71.9336,574.199" /><path
         id="path20"
         style="fill:#ed1639;fill-opacity:1;fill-rule:nonzero;stroke:none"
         d="m 231.902,574.445 c 0,188.797 152.934,341.864 341.594,341.864 188.649,0 341.559,-153.067 341.559,-341.864 0,-188.812 -152.91,-341.859 -341.559,-341.859 -188.66,0 -341.594,153.047 -341.594,341.859" /><path
         id="path22"
         style="fill:#ed1639;fill-opacity:1;fill-rule:nonzero;stroke:none"
         d="m 231.902,574.445 c 0,188.797 152.934,341.864 341.594,341.864 188.649,0 341.559,-153.067 341.559,-341.864 0,-188.812 -152.91,-341.859 -341.559,-341.859 -188.66,0 -341.594,153.047 -341.594,341.859" /><path
         id="path24"
         style="fill:#fddd1b;fill-opacity:1;fill-rule:nonzero;stroke:none"
         d="m 829.859,733.555 -10.488,30.293 -10.117,-30.313 -32.715,-0.008 26.524,-18.781 -10.176,-30.281 26.523,18.777 26.426,-18.777 -9.707,30.207 26.074,18.855 -32.344,0.028" /><path
         id="path26"
         style="fill:#fddd1b;fill-opacity:1;fill-rule:nonzero;stroke:none"
         d="M 724.742,833.02 714.234,863.301 704.117,833 l -32.734,-0.02 26.523,-18.781 -10.156,-30.273 26.523,18.769 26.426,-18.769 -9.726,30.187 26.093,18.867 -32.324,0.04" /><path
         id="path28"
         style="fill:#fddd1b;fill-opacity:1;fill-rule:nonzero;stroke:none"
         d="m 582.301,872.297 -10.504,30.293 -10.109,-30.324 h -32.735 l 26.535,-18.778 -10.168,-30.285 26.535,18.781 26.403,-18.781 -9.707,30.195 26.074,18.868 -32.324,0.031" /><path
         id="path30"
         style="fill:#fddd1b;fill-opacity:1;fill-rule:nonzero;stroke:none"
         d="m 441.57,833 -10.515,30.301 -10.11,-30.321 -32.722,-0.011 26.523,-18.77 -10.156,-30.293 26.523,18.782 26.414,-18.782 -9.714,30.207 26.082,18.856 L 441.57,833" /><path
         id="path32"
         style="fill:#fddd1b;fill-opacity:1;fill-rule:nonzero;stroke:none"
         d="m 336.438,733.555 -10.508,30.293 -10.11,-30.313 -32.722,-0.008 26.519,-18.781 -10.164,-30.281 26.524,18.777 26.418,-18.777 -9.707,30.207 26.074,18.855 -32.324,0.028" /><path
         id="path34"
         style="fill:#fddd1b;fill-opacity:1;fill-rule:nonzero;stroke:none"
         d="m 297.461,583.195 -10.508,30.301 -10.105,-30.312 -32.739,-0.02 26.536,-18.769 -10.165,-30.286 26.524,18.774 26.426,-18.774 -9.719,30.188 26.074,18.867 -32.324,0.031" /><path
         id="path36"
         style="fill:#fddd1b;fill-opacity:1;fill-rule:nonzero;stroke:none"
         d="m 342.219,446.082 -10.52,30.293 -10.105,-30.312 -32.727,-0.02 26.524,-18.77 -10.157,-30.293 26.512,18.79 26.43,-18.79 -9.719,30.196 26.086,18.867 -32.324,0.039" /><path
         id="path38"
         style="fill:#fddd1b;fill-opacity:1;fill-rule:nonzero;stroke:none"
         d="m 435.793,346.648 -10.512,30.274 -10.105,-30.293 h -32.727 l 26.528,-18.789 -10.168,-30.293 26.523,18.789 26.414,-18.789 -9.703,30.195 26.07,18.887 -32.32,0.019" /><path
         id="path40"
         style="fill:#fddd1b;fill-opacity:1;fill-rule:nonzero;stroke:none"
         d="m 582.301,295.379 -10.504,30.293 -10.117,-30.293 h -32.727 l 26.535,-18.789 -10.175,-30.293 26.523,18.769 26.422,-18.769 -9.707,30.215 26.074,18.867 h -32.324" /><path
         id="path42"
         style="fill:#fddd1b;fill-opacity:1;fill-rule:nonzero;stroke:none"
         d="m 728.824,346.629 -10.508,30.293 -10.117,-30.293 -32.734,-0.039 26.543,-18.75 -10.176,-30.293 26.523,18.769 26.426,-18.769 -9.707,30.176 26.074,18.867 -32.324,0.039" /><path
         id="path44"
         style="fill:#fddd1b;fill-opacity:1;fill-rule:nonzero;stroke:none"
         d="m 822.418,446.082 -10.508,30.273 -10.117,-30.312 h -32.734 l 26.543,-18.77 -10.196,-30.293 26.543,18.79 26.426,-18.79 -9.707,30.196 26.074,18.867 -32.324,0.039" /><path
         id="path46"
         style="fill:#fddd1b;fill-opacity:1;fill-rule:nonzero;stroke:none"
         d="m 870.523,583.828 -10.507,30.305 -10.098,-30.324 -32.734,-0.02 26.543,-18.758 -10.196,-30.297 26.543,18.782 26.426,-18.782 -9.707,30.207 26.055,18.848 -32.325,0.039" /><path
         id="path48"
         style="fill:#fddd1b;fill-opacity:1;fill-rule:nonzero;stroke:none"
         d="m 691.188,393.445 c -59.375,62.325 -182.665,117.5 -328.891,139.61 l -0.688,3.73 c -1.558,8.86 -2.554,17.699 -3.015,26.469 151.445,-21.742 288.804,-79.106 356.207,-151.977 -7.403,-6.445 -15.293,-12.402 -23.613,-17.832" /><path
         id="path50"
         style="fill:#fddd1b;fill-opacity:1;fill-rule:nonzero;stroke:none"
         d="m 600.66,360.32 c -27.469,46.836 -111.207,92.715 -218.023,114.297 -5.34,10.274 -9.903,21.074 -13.582,32.344 122.586,-21.133 230.531,-74.668 261.644,-140.664 -6.386,-1.738 -12.91,-3.203 -19.57,-4.395 -3.496,-0.605 -6.973,-1.132 -10.469,-1.582" /><path
         id="path52"
         style="fill:#fddd1b;fill-opacity:1;fill-rule:nonzero;stroke:none"
         d="m 399.719,447.078 c 57.566,-15.43 106.433,-42.773 122.586,-82.265 -49.231,12.148 -92.762,41.425 -122.586,82.265" /><path
         id="path54"
         style="fill:#fddd1b;fill-opacity:1;fill-rule:nonzero;stroke:none"
         d="m 577.594,566.164 c 73.984,20.359 148.652,28.074 211.054,22.41 0.508,-7.519 0.625,-15 0.352,-22.39 -50.312,4.949 -111.016,0.808 -174.629,-13.645 10.879,-4.277 21.504,-8.711 31.895,-13.293 52.05,8.02 101.621,6.945 139.336,-4.101 -1.348,-7.344 -3.067,-14.59 -5.176,-21.7 -25.469,7.637 -58.77,10.528 -96.153,7.871 29.356,-14.863 56.153,-30.898 79.844,-47.929 -4.57,-8.633 -9.707,-16.934 -15.39,-24.864 -89.161,64.649 -230.004,117.727 -389.965,139.985 0.64,9.746 1.929,19.363 3.867,28.789 50.254,-7.043 99.246,-17.109 145.777,-29.766 92.02,32 187.645,48.446 271.571,48.836 2.148,-7.148 3.925,-14.48 5.351,-21.972 -72.207,0.332 -155.449,-11.797 -239.527,-37.774 10.762,-3.34 21.347,-6.836 31.793,-10.457" /><path
         id="path56"
         style="fill:#fddd1b;fill-opacity:1;fill-rule:nonzero;stroke:none"
         d="m 829.859,733.555 -10.488,30.293 -10.117,-30.313 -32.715,-0.008 26.524,-18.781 -10.176,-30.281 26.523,18.777 26.426,-18.777 -9.707,30.207 26.074,18.855 -32.344,0.028" /><path
         id="path58"
         style="fill:#fddd1b;fill-opacity:1;fill-rule:nonzero;stroke:none"
         d="M 724.742,833.02 714.234,863.301 704.117,833 l -32.734,-0.02 26.523,-18.781 -10.156,-30.273 26.523,18.769 26.426,-18.769 -9.726,30.187 26.093,18.867 -32.324,0.04" /><path
         id="path60"
         style="fill:#fddd1b;fill-opacity:1;fill-rule:nonzero;stroke:none"
         d="m 582.301,872.297 -10.504,30.293 -10.109,-30.324 h -32.735 l 26.535,-18.778 -10.168,-30.285 26.535,18.781 26.403,-18.781 -9.707,30.195 26.074,18.868 -32.324,0.031" /><path
         id="path62"
         style="fill:#fddd1b;fill-opacity:1;fill-rule:nonzero;stroke:none"
         d="m 441.57,833 -10.515,30.301 -10.11,-30.321 -32.722,-0.011 26.523,-18.77 -10.156,-30.293 26.523,18.782 26.414,-18.782 -9.714,30.207 26.082,18.856 L 441.57,833" /><path
         id="path64"
         style="fill:#fddd1b;fill-opacity:1;fill-rule:nonzero;stroke:none"
         d="m 336.438,733.555 -10.508,30.293 -10.11,-30.313 -32.722,-0.008 26.519,-18.781 -10.164,-30.281 26.524,18.777 26.418,-18.777 -9.707,30.207 26.074,18.855 -32.324,0.028" /><path
         id="path66"
         style="fill:#fddd1b;fill-opacity:1;fill-rule:nonzero;stroke:none"
         d="m 297.461,583.195 -10.508,30.301 -10.105,-30.312 -32.739,-0.02 26.536,-18.769 -10.165,-30.286 26.524,18.774 26.426,-18.774 -9.719,30.188 26.074,18.867 -32.324,0.031" /><path
         id="path68"
         style="fill:#fddd1b;fill-opacity:1;fill-rule:nonzero;stroke:none"
         d="m 342.219,446.082 -10.52,30.293 -10.105,-30.312 -32.727,-0.02 26.524,-18.77 -10.157,-30.293 26.512,18.79 26.43,-18.79 -9.719,30.196 26.086,18.867 -32.324,0.039" /><path
         id="path70"
         style="fill:#fddd1b;fill-opacity:1;fill-rule:nonzero;stroke:none"
         d="m 435.793,346.648 -10.512,30.274 -10.105,-30.293 h -32.727 l 26.528,-18.789 -10.168,-30.293 26.523,18.789 26.414,-18.789 -9.703,30.195 26.07,18.887 -32.32,0.019" /><path
         id="path72"
         style="fill:#fddd1b;fill-opacity:1;fill-rule:nonzero;stroke:none"
         d="m 582.301,295.379 -10.504,30.293 -10.117,-30.293 h -32.727 l 26.535,-18.789 -10.175,-30.293 26.523,18.769 26.422,-18.769 -9.707,30.215 26.074,18.867 h -32.324" /><path
         id="path74"
         style="fill:#fddd1b;fill-opacity:1;fill-rule:nonzero;stroke:none"
         d="m 728.824,346.629 -10.508,30.293 -10.117,-30.293 -32.734,-0.039 26.543,-18.75 -10.176,-30.293 26.523,18.769 26.426,-18.769 -9.707,30.176 26.074,18.867 -32.324,0.039" /><path
         id="path76"
         style="fill:#fddd1b;fill-opacity:1;fill-rule:nonzero;stroke:none"
         d="m 822.418,446.082 -10.508,30.273 -10.117,-30.312 h -32.734 l 26.543,-18.77 -10.196,-30.293 26.543,18.79 26.426,-18.79 -9.707,30.196 26.074,18.867 -32.324,0.039" /><path
         id="path78"
         style="fill:#fddd1b;fill-opacity:1;fill-rule:nonzero;stroke:none"
         d="m 870.523,583.828 -10.507,30.305 -10.098,-30.324 -32.734,-0.02 26.543,-18.758 -10.196,-30.297 26.543,18.782 26.426,-18.782 -9.707,30.207 26.055,18.848 -32.325,0.039" /><path
         id="path80"
         style="fill:#fddd1b;fill-opacity:1;fill-rule:nonzero;stroke:none"
         d="m 691.188,393.445 c -59.375,62.325 -182.665,117.5 -328.891,139.61 l -0.688,3.73 c -1.558,8.86 -2.554,17.699 -3.015,26.469 151.445,-21.742 288.804,-79.106 356.207,-151.977 -7.403,-6.445 -15.293,-12.402 -23.613,-17.832" /><path
         id="path82"
         style="fill:#fddd1b;fill-opacity:1;fill-rule:nonzero;stroke:none"
         d="m 600.66,360.32 c -27.469,46.836 -111.207,92.715 -218.023,114.297 -5.34,10.274 -9.903,21.074 -13.582,32.344 122.586,-21.133 230.531,-74.668 261.644,-140.664 -6.386,-1.738 -12.91,-3.203 -19.57,-4.395 -3.496,-0.605 -6.973,-1.132 -10.469,-1.582" /><path
         id="path84"
         style="fill:#fddd1b;fill-opacity:1;fill-rule:nonzero;stroke:none"
         d="m 399.719,447.078 c 57.566,-15.43 106.433,-42.773 122.586,-82.265 -49.231,12.148 -92.762,41.425 -122.586,82.265" /><path
         id="path86"
         style="fill:#fddd1b;fill-opacity:1;fill-rule:nonzero;stroke:none"
         d="m 577.594,566.164 c 73.984,20.359 148.652,28.074 211.054,22.41 0.508,-7.519 0.625,-15 0.352,-22.39 -50.312,4.949 -111.016,0.808 -174.629,-13.645 10.879,-4.277 21.504,-8.711 31.895,-13.293 52.05,8.02 101.621,6.945 139.336,-4.101 -1.348,-7.344 -3.067,-14.59 -5.176,-21.7 -25.469,7.637 -58.77,10.528 -96.153,7.871 29.356,-14.863 56.153,-30.898 79.844,-47.929 -4.57,-8.633 -9.707,-16.934 -15.39,-24.864 -89.161,64.649 -230.004,117.727 -389.965,139.985 0.64,9.746 1.929,19.363 3.867,28.789 50.254,-7.043 99.246,-17.109 145.777,-29.766 92.02,32 187.645,48.446 271.571,48.836 2.148,-7.148 3.925,-14.48 5.351,-21.972 -72.207,0.332 -155.449,-11.797 -239.527,-37.774 10.762,-3.34 21.347,-6.836 31.793,-10.457" /><path
         id="path88"
         style="fill:#ed1639;fill-opacity:1;fill-rule:nonzero;stroke:none"
         d="m 328.531,218.316 c -2.789,1.926 -4.484,4.551 -5.093,7.883 -0.606,3.321 0.054,6.387 1.976,9.168 1.926,2.785 4.551,4.485 7.883,5.09 3.324,0.606 6.383,-0.051 9.168,-1.973 2.785,-1.933 4.484,-4.55 5.09,-7.882 0.609,-3.329 -0.051,-6.387 -1.981,-9.168 -1.922,-2.793 -4.539,-4.493 -7.855,-5.11 -3.317,-0.613 -6.379,0.051 -9.188,1.992" /><path
         id="path90"
         style="fill:#ed1639;fill-opacity:1;fill-rule:nonzero;stroke:none"
         d="m 301.977,291.668 c -2.219,3.613 -4.313,6.414 -6.258,8.418 -5.258,5.43 -11.531,8.074 -18.805,7.949 -7.273,-0.117 -14.176,-3.34 -20.691,-9.66 -6.567,-6.375 -10.008,-13.172 -10.325,-20.418 -0.316,-7.246 2.247,-13.672 7.688,-19.289 2.039,-2.098 4.699,-4.168 7.984,-6.199 z m 16.593,-10.227 -1.297,-1.257 -1.73,1.796 c -1.953,2 -3.977,2.801 -6.078,2.403 -1.274,-0.235 -3.25,-1.66 -5.934,-4.258 L 272.832,250.34 c -2.969,-2.891 -4.508,-5.02 -4.625,-6.387 -0.141,-1.914 0.66,-3.769 2.402,-5.566 l 1.735,-1.789 -1.293,-1.258 -18.77,19.344 c -6.89,7.101 -11.324,13.293 -13.304,18.554 -1.985,5.266 -2.184,10.852 -0.614,16.758 1.578,5.91 4.828,11.242 9.758,16.027 6.609,6.415 14.086,9.766 22.426,10.059 9.324,0.293 18.469,-4.172 27.422,-13.398 l 20.601,-21.243" /><path
         id="path92"
         style="fill:#ed1639;fill-opacity:1;fill-rule:nonzero;stroke:none"
         d="m 206.355,314.188 21.583,14.804 -8.227,11.992 c -2.137,3.114 -4.031,4.871 -5.691,5.274 -2.196,0.547 -4.899,-0.156 -8.125,-2.129 l -1.024,1.484 19.008,13.035 1.023,-1.492 c -2.402,-2.199 -3.847,-3.742 -4.339,-4.629 -0.614,-1.132 -0.805,-2.433 -0.586,-3.898 0.218,-1.473 1.109,-3.348 2.675,-5.633 l 8.227,-11.992 18,12.344 c 2.414,1.66 3.812,2.773 4.187,3.347 0.375,0.578 0.539,1.231 0.473,1.985 -0.059,0.742 -0.601,1.875 -1.637,3.379 l -6.351,9.257 c -2.113,3.086 -3.867,5.176 -5.254,6.289 -1.387,1.094 -3.152,1.856 -5.297,2.286 -2.809,0.515 -6.484,0.507 -11.039,-0.059 l -1.106,1.621 16.926,4.668 28.856,-42.07 -1.489,-1.028 -1.324,1.934 c -0.883,1.289 -2.031,2.297 -3.441,3.027 -1.016,0.567 -2.063,0.715 -3.129,0.43 -1.074,-0.281 -2.941,-1.336 -5.598,-3.152 l -35.472,-24.336 c -3.461,-2.375 -5.356,-4.18 -5.684,-5.43 -0.41,-1.711 0.156,-3.691 1.703,-5.937 l 1.324,-1.934 -1.488,-1.027 -28.863,42.082 11.547,8.808 1.074,-1.582 c -2.484,-2.531 -4.027,-4.511 -4.633,-5.929 -0.605,-1.414 -0.726,-2.997 -0.371,-4.715 0.332,-1.36 1.43,-3.391 3.293,-6.094 l 10.269,-14.98" /><path
         id="path94"
         style="fill:#ed1639;fill-opacity:1;fill-rule:nonzero;stroke:none"
         d="m 174.957,354.09 -7.445,16.355 28.422,57.414 -34.75,-15.82 c -3.707,-1.68 -5.829,-3.156 -6.371,-4.394 -0.747,-1.672 -0.579,-3.692 0.5,-6.055 l 0.953,-2.09 -1.649,-0.742 -9.543,20.976 1.641,0.743 0.973,-2.129 c 1.16,-2.559 2.75,-4.004 4.777,-4.375 1.246,-0.215 3.555,0.437 6.933,1.972 l 50.793,23.125 0.731,-1.593 -30.438,-61.825 37.106,16.895 c 3.703,1.687 5.832,3.144 6.387,4.355 0.73,1.7 0.562,3.711 -0.504,6.055 l -0.969,2.129 1.641,0.75 9.55,-20.977 -1.644,-0.75 -0.946,2.09 c -1.179,2.578 -2.777,4.043 -4.8,4.414 -1.246,0.215 -3.563,-0.441 -6.934,-1.972 l -41.91,-19.082 c -1.246,-2.676 -1.992,-4.621 -2.231,-5.821 -0.242,-1.203 -0.246,-2.804 -0.011,-4.804 0.125,-0.977 0.586,-2.344 1.383,-4.094 l -1.645,-0.75" /><path
         id="path96"
         style="fill:#ed1639;fill-opacity:1;fill-rule:nonzero;stroke:none"
         d="m 133.945,468.309 c 1.387,-5.762 4.641,-9.864 9.746,-12.317 6.364,-3.054 14.668,-3.347 24.922,-0.879 10.508,2.532 18.051,6.731 22.637,12.59 3.473,4.473 4.527,9.551 3.164,15.215 -1.453,6.055 -5.016,10.469 -10.684,13.281 -5.664,2.801 -13.574,2.989 -23.73,0.535 -11.016,-2.644 -18.707,-6.804 -23.07,-12.429 -3.469,-4.532 -4.465,-9.856 -2.985,-15.996 z m -3.679,0.078 c -2.012,8.347 -0.582,16.347 4.285,24.004 4.875,7.656 12.054,12.617 21.547,14.902 9.781,2.363 18.636,1.23 26.582,-3.391 7.941,-4.617 12.968,-11.308 15.078,-20.066 2.137,-8.867 0.781,-17.07 -4.067,-24.609 -4.843,-7.559 -12.269,-12.532 -22.269,-14.942 -10.223,-2.461 -19.402,-0.988 -27.531,4.422 -7.059,4.699 -11.602,11.25 -13.625,19.68" /><path
         id="path98"
         style="fill:#ed1639;fill-opacity:1;fill-rule:nonzero;stroke:none"
         d="m 185.797,560 -54.996,-27.082 44.222,1.191 c 4.071,0.118 6.594,0.625 7.579,1.524 1.336,1.25 1.964,3.164 1.894,5.769 l -0.062,2.344 1.804,0.051 0.625,-23.039 -1.804,-0.047 -0.063,2.344 c -0.078,2.793 -0.976,4.765 -2.699,5.879 -1.063,0.691 -3.449,0.984 -7.16,0.879 l -43.242,-1.172 c -2.93,-0.078 -5.036,-0.461 -6.321,-1.153 -0.929,-0.468 -1.695,-1.328 -2.297,-2.578 -0.601,-1.23 -0.867,-3.203 -0.793,-5.898 l -1.804,-0.059 -0.516,18.75 51.141,25.418 -52.434,22.219 -0.508,18.742 1.809,0.051 0.062,-2.297 c 0.075,-2.832 0.977,-4.809 2.7,-5.93 1.058,-0.691 3.449,-0.984 7.156,-0.879 l 43.246,1.172 c 4.066,0.11 6.59,0.633 7.578,1.574 1.332,1.243 1.961,3.161 1.895,5.77 l -0.067,2.289 1.809,0.047 0.762,-28.109 -1.801,-0.047 -0.067,2.336 c -0.078,2.832 -0.972,4.796 -2.699,5.89 -1.062,0.684 -3.445,0.981 -7.156,0.879 l -44.227,-1.203 56.391,-24.012 0.043,-1.613" /><path
         id="path100"
         style="fill:#ed1639;fill-opacity:1;fill-rule:nonzero;stroke:none"
         d="m 188.512,638.707 1.793,-0.219 -3.45,-28.16 -1.792,0.219 0.285,2.332 c 0.332,2.707 -0.215,4.777 -1.653,6.199 -0.937,0.902 -3.379,1.598 -7.316,2.082 l -42.457,5.199 c -3.332,0.407 -5.555,0.465 -6.672,0.176 -0.848,-0.226 -1.625,-0.801 -2.328,-1.734 -0.945,-1.328 -1.52,-2.762 -1.707,-4.317 l -0.285,-2.324 -1.793,0.219 3.449,28.16 1.793,-0.219 -0.289,-2.379 c -0.332,-2.679 0.223,-4.73 1.652,-6.152 0.934,-0.937 3.375,-1.644 7.317,-2.129 l 42.457,-5.199 c 3.328,-0.406 5.55,-0.465 6.668,-0.176 0.843,0.223 1.629,0.817 2.336,1.781 0.941,1.293 1.511,2.715 1.703,4.27 l 0.289,2.371" /><path
         id="path102"
         style="fill:#ed1639;fill-opacity:1;fill-rule:nonzero;stroke:none"
         d="m 124.984,657.039 4.567,17.375 58.316,26.524 -36.929,9.707 c -3.934,1.035 -6.504,1.242 -7.715,0.617 -1.625,-0.817 -2.774,-2.485 -3.434,-5.004 l -0.586,-2.219 -1.746,0.461 5.859,22.289 1.747,-0.461 -0.594,-2.269 c -0.715,-2.704 -0.399,-4.844 0.941,-6.407 0.824,-0.957 3.031,-1.902 6.621,-2.851 l 53.981,-14.184 -0.449,-1.699 -62.668,-28.668 39.433,-10.359 c 3.938,-1.036 6.504,-1.258 7.699,-0.664 1.645,0.847 2.786,2.519 3.442,5.003 l 0.594,2.266 1.75,-0.461 -5.864,-22.289 -1.746,0.461 0.586,2.219 c 0.719,2.742 0.41,4.89 -0.934,6.457 -0.824,0.957 -3.031,1.902 -6.621,2.851 l -44.531,11.704 c -2.66,-1.29 -4.461,-2.321 -5.41,-3.102 -0.941,-0.773 -1.957,-2.016 -3.047,-3.715 -0.519,-0.84 -1.023,-2.187 -1.512,-4.043 l -1.75,0.461" /><path
         id="path104"
         style="fill:#ed1639;fill-opacity:1;fill-rule:nonzero;stroke:none"
         d="m 203.652,762.613 -28.984,1.434 19.156,-21.957 z m 3.852,-0.328 -11.074,-23.117 7.48,-8.566 c 1.844,-2.11 3.336,-3.438 4.481,-3.989 0.91,-0.433 1.918,-0.386 3.019,0.153 1.11,0.535 2.453,2.191 4.035,4.968 l 1.629,-0.781 -9.008,-18.805 -1.628,0.782 c 0.753,2.707 0.957,4.597 0.601,5.672 -0.691,2.171 -2.758,5.199 -6.199,9.086 l -39.082,44.55 0.738,1.539 59.629,-3.007 c 4.793,-0.243 8.109,0.039 9.953,0.832 1.844,0.796 3.426,2.375 4.738,4.742 l 1.625,-0.781 -11.285,-23.559 -1.629,0.781 c 1.028,2.43 1.399,4.235 1.121,5.391 -0.269,1.16 -0.894,1.972 -1.863,2.437 -1.293,0.617 -3.613,1.008 -6.965,1.172 l -10.316,0.5" /><path
         id="path106"
         style="fill:#ed1639;fill-opacity:1;fill-rule:nonzero;stroke:none"
         d="m 219.23,861.793 25.125,-71.629 15.844,22.043 c 2.434,3.387 3.555,6.516 3.379,9.391 -0.18,2.871 -2.023,6.636 -5.543,11.285 l 1.18,1.137 12.41,-12.77 -31.453,-43.773 -1.473,1.054 -24.297,69.778 -12.367,-17.215 c -2.051,-2.852 -3.226,-5.145 -3.523,-6.875 -0.305,-1.727 -0.106,-3.348 0.586,-4.871 0.691,-1.52 2.449,-3.715 5.277,-6.586 l -1.086,-1.504 -12.641,10.765 28.582,39.77" /><path
         id="path108"
         style="fill:#ed1639;fill-opacity:1;fill-rule:nonzero;stroke:none"
         d="m 295.297,849.305 1.324,-1.227 -19.262,-20.832 -1.324,1.231 1.594,1.718 c 1.851,2.008 2.613,4.004 2.281,5.996 -0.23,1.286 -1.805,3.274 -4.719,5.969 l -31.402,29.043 c -2.461,2.281 -4.234,3.629 -5.309,4.047 -0.816,0.313 -1.785,0.297 -2.898,-0.043 -1.551,-0.523 -2.848,-1.359 -3.91,-2.504 l -1.594,-1.719 -1.324,1.223 19.266,20.828 1.32,-1.226 -1.621,-1.758 c -1.836,-1.985 -2.586,-3.969 -2.254,-5.961 0.211,-1.305 1.777,-3.309 4.691,-6.004 l 31.399,-29.039 c 2.465,-2.281 4.23,-3.629 5.304,-4.047 0.821,-0.316 1.797,-0.285 2.938,0.078 1.519,0.5 2.816,1.32 3.875,2.469 l 1.625,1.758" /><path
         id="path110"
         style="fill:#ed1639;fill-opacity:1;fill-rule:nonzero;stroke:none"
         d="m 284.293,923.121 c -4.574,-3.758 -6.855,-8.476 -6.832,-14.144 0.019,-7.055 3.379,-14.661 10.074,-22.813 6.86,-8.351 13.926,-13.312 21.195,-14.879 5.551,-1.172 10.579,0.094 15.079,3.789 4.804,3.946 7.238,9.082 7.289,15.403 0.054,6.316 -3.231,13.519 -9.868,21.589 -7.187,8.754 -14.273,13.868 -21.25,15.344 -5.578,1.145 -10.804,-0.285 -15.687,-4.289 z m -1.543,3.34 c 6.641,5.453 14.469,7.66 23.477,6.613 9.007,-1.047 16.617,-5.344 22.812,-12.89 6.383,-7.774 9.227,-16.243 8.535,-25.403 -0.687,-9.16 -4.515,-16.601 -11.488,-22.324 -7.043,-5.781 -15.016,-8.141 -23.922,-7.07 -8.902,1.07 -16.617,5.582 -23.144,13.531 -6.676,8.125 -9.352,17.027 -8.028,26.703 1.149,8.399 5.063,15.348 11.758,20.84" /><path
         id="path112"
         style="fill:#ed1639;fill-opacity:1;fill-rule:nonzero;stroke:none"
         d="m 320.453,954.27 15.746,8.656 59.391,-24.024 -18.387,33.461 c -1.965,3.571 -3.586,5.575 -4.867,6.024 -1.715,0.613 -3.715,0.297 -5.996,-0.957 l -2.008,-1.106 -0.875,1.582 20.199,11.106 0.871,-1.59 -2.054,-1.125 c -2.453,-1.348 -3.785,-3.047 -3.996,-5.094 -0.125,-1.262 0.703,-3.515 2.492,-6.769 l 26.879,-48.907 -1.539,-0.847 -63.938,25.703 19.641,-35.735 c 1.957,-3.562 3.562,-5.574 4.824,-6.039 1.738,-0.601 3.738,-0.281 5.992,0.957 l 2.055,1.129 0.871,-1.582 -20.195,-11.105 -0.875,1.582 2.011,1.109 c 2.485,1.364 3.828,3.071 4.043,5.117 0.121,1.254 -0.711,3.512 -2.496,6.762 l -22.179,40.352 c -2.762,1.047 -4.754,1.64 -5.965,1.793 -1.215,0.148 -2.817,0.031 -4.793,-0.352 -0.973,-0.199 -2.297,-0.762 -3.981,-1.683 l -0.871,1.582" /><path
         id="path114"
         style="fill:#ed1639;fill-opacity:1;fill-rule:nonzero;stroke:none"
         d="m 416.344,997.258 8.554,-24.738 13.75,4.757 c 3.571,1.235 5.766,2.598 6.59,4.09 1.114,1.969 1.145,4.766 0.094,8.399 l 1.711,0.593 7.527,-21.785 -1.703,-0.59 c -1.484,2.903 -2.594,4.704 -3.32,5.414 -0.93,0.887 -2.125,1.418 -3.602,1.598 -1.472,0.18 -3.519,-0.18 -6.132,-1.09 l -13.754,-4.754 7.132,-20.625 c 0.957,-2.769 1.668,-4.414 2.122,-4.925 0.453,-0.516 1.05,-0.848 1.789,-0.985 0.734,-0.14 1.964,0.086 3.691,0.68 l 10.609,3.672 c 3.539,1.226 6.02,2.359 7.45,3.402 1.429,1.047 2.632,2.551 3.609,4.504 1.25,2.566 2.207,6.121 2.875,10.66 l 1.848,0.637 0.027,-17.559 -48.223,-16.679 -0.59,1.711 2.215,0.765 c 1.477,0.508 2.754,1.348 3.828,2.516 0.817,0.828 1.235,1.801 1.247,2.906 0.011,1.106 -0.508,3.184 -1.563,6.231 l -14.059,40.652 c -1.371,3.969 -2.621,6.281 -3.738,6.926 -1.531,0.843 -3.59,0.824 -6.176,-0.071 l -2.214,-0.765 -0.59,1.703 48.222,16.682 5.43,-13.467 -1.797,-0.621 c -1.785,3.068 -3.281,5.078 -4.492,6.038 -1.211,0.96 -2.695,1.5 -4.457,1.61 -1.391,0.04 -3.637,-0.48 -6.746,-1.55 l -17.164,-5.942" /><path
         id="path116"
         style="fill:#ed1639;fill-opacity:1;fill-rule:nonzero;stroke:none"
         d="m 519.57,964.098 c 4.203,-0.508 7.696,-0.625 10.485,-0.352 7.511,0.734 13.496,3.981 17.937,9.742 4.446,5.766 6.223,13.168 5.344,22.207 -0.891,9.105 -4.066,16.035 -9.531,20.805 -5.469,4.77 -12.094,6.77 -19.867,6.01 -2.918,-0.28 -6.196,-1.08 -9.829,-2.38 z m -18.343,-6.598 -0.176,1.797 2.48,0.246 c 2.785,0.27 4.676,1.352 5.668,3.246 0.606,1.145 0.735,3.574 0.367,7.301 l -4.144,42.57 c -0.402,4.11 -1.109,6.64 -2.117,7.59 -1.403,1.3 -3.356,1.84 -5.844,1.59 l -2.481,-0.24 -0.175,1.8 26.828,2.61 c 9.847,0.96 17.449,0.58 22.801,-1.16 5.351,-1.73 9.847,-5.06 13.48,-9.97 3.641,-4.91 5.785,-10.78 6.457,-17.618 0.895,-9.168 -1.148,-17.106 -6.125,-23.805 -5.578,-7.48 -14.769,-11.84 -27.566,-13.086 L 501.227,957.5" /><path
         id="path118"
         style="fill:#ed1639;fill-opacity:1;fill-rule:nonzero;stroke:none"
         d="m 579.77,1001.81 -2.352,14.5 c -0.684,4.02 -0.996,6.73 -0.977,8.12 0.039,2.09 0.489,3.59 1.356,4.52 0.871,0.93 2.031,1.38 3.496,1.35 1.465,-0.03 2.668,-0.53 3.605,-1.51 0.946,-0.98 1.407,-2.24 1.368,-3.81 -0.02,-1.2 -0.5,-4.16 -1.438,-8.86 l -2.91,-14.35 -2.148,0.04" /><path
         id="path120"
         style="fill:#ed1639;fill-opacity:1;fill-rule:nonzero;stroke:none"
         d="m 633.414,1022.75 c -5.871,0.8 -10.879,-0.74 -15.019,-4.61 -5.157,-4.82 -8.438,-12.46 -9.856,-22.906 -1.453,-10.707 -0.281,-19.261 3.516,-25.656 2.922,-4.863 7.277,-7.687 13.039,-8.469 6.172,-0.839 11.582,0.875 16.25,5.137 4.668,4.262 7.703,11.567 9.109,21.926 1.516,11.223 0.442,19.898 -3.223,26.008 -2.957,4.87 -7.558,7.73 -13.816,8.57 z m 1.406,3.41 c 8.516,-1.15 15.45,-5.39 20.821,-12.7 5.351,-7.32 7.382,-15.808 6.074,-25.483 -1.36,-9.973 -5.625,-17.821 -12.813,-23.547 -7.179,-5.727 -15.234,-7.985 -24.172,-6.774 -9.031,1.227 -16.179,5.465 -21.453,12.723 -5.273,7.25 -7.226,15.976 -5.839,26.168 1.406,10.413 6.113,18.433 14.101,24.053 6.934,4.88 14.688,6.73 23.281,5.56" /><path
         id="path122"
         style="fill:#ed1639;fill-opacity:1;fill-rule:nonzero;stroke:none"
         d="m 691.195,980.066 c 0.586,-0.191 1.094,-0.363 1.524,-0.519 0.429,-0.156 0.781,-0.277 1.066,-0.367 6.016,-1.934 10.957,-2.094 14.844,-0.473 3.894,1.621 6.484,4.445 7.793,8.473 1.258,3.933 1.055,7.535 -0.606,10.789 -1.679,3.261 -4.543,5.541 -8.593,6.841 -1.797,0.58 -4.336,1.07 -7.59,1.47 z m 34.328,-46.808 -16.828,5.422 -11.843,36.332 c -1.602,0.449 -2.891,0.828 -3.887,1.152 -0.41,0.125 -0.84,0.274 -1.289,0.438 -0.469,0.168 -0.938,0.347 -1.426,0.539 l -5.898,-18.317 c -1.27,-3.965 -1.633,-6.566 -1.075,-7.808 0.743,-1.743 2.286,-2.993 4.637,-3.75 l 2.473,-0.793 -0.559,-1.719 -27,8.695 0.547,1.719 2.371,-0.762 c 2.668,-0.859 4.856,-0.605 6.555,0.762 0.957,0.746 2.019,2.918 3.183,6.52 l 13.106,40.712 c 1.269,3.96 1.64,6.56 1.074,7.81 -0.762,1.75 -2.344,3.01 -4.726,3.78 l -2.375,0.76 0.558,1.72 22.949,-7.39 c 6.7,-2.15 11.473,-4.24 14.336,-6.23 2.871,-2 4.981,-4.666 6.348,-7.995 1.375,-3.335 1.484,-6.812 0.312,-10.441 -1.25,-3.871 -3.593,-6.824 -7.031,-8.859 -3.449,-2.043 -8.008,-2.793 -13.683,-2.266 l 7.199,-22.273 c 1.629,-5.106 3.301,-8.692 5,-10.743 1.699,-2.05 4.199,-3.816 7.519,-5.296 l -0.547,-1.719" /><path
         id="path124"
         style="fill:#ed1639;fill-opacity:1;fill-rule:nonzero;stroke:none"
         d="m 753.023,921.094 -0.761,-1.633 -25.703,12.019 0.769,1.637 2.121,-0.992 c 2.481,-1.16 4.61,-1.277 6.406,-0.359 1.153,0.613 2.567,2.718 4.258,6.312 l 18.125,38.746 c 1.426,3.035 2.168,5.129 2.235,6.281 0.05,0.875 -0.254,1.793 -0.926,2.75 -0.957,1.317 -2.149,2.305 -3.567,2.965 l -2.117,0.996 0.762,1.637 25.691,-12.023 -0.769,-1.641 -2.16,1.016 c -2.449,1.148 -4.571,1.254 -6.367,0.336 -1.18,-0.598 -2.606,-2.696 -4.286,-6.293 l -18.136,-38.739 c -1.414,-3.039 -2.168,-5.132 -2.235,-6.285 -0.058,-0.875 0.274,-1.797 0.965,-2.773 0.938,-1.301 2.11,-2.281 3.527,-2.946 l 2.168,-1.011" /><path
         id="path126"
         style="fill:#ed1639;fill-opacity:1;fill-rule:nonzero;stroke:none"
         d="m 843.414,943.328 -9.863,-18.508 -1.446,0.922 c 1.368,5.313 1.622,9.821 0.743,13.516 -1.262,5.34 -4.493,9.676 -9.688,13.019 -7.09,4.555 -14.297,5.215 -21.601,1.977 -6.133,-2.75 -11.309,-7.399 -15.508,-13.941 -3.418,-5.317 -5.508,-10.821 -6.27,-16.524 -0.761,-5.703 -0.136,-10.637 1.883,-14.816 2.024,-4.18 4.777,-7.395 8.281,-9.649 2.063,-1.32 4.211,-2.336 6.457,-3.047 2.246,-0.711 4.59,-1.129 7.032,-1.261 l 10.339,16.105 c 1.797,2.793 2.766,4.754 2.883,5.891 0.137,1.133 -0.097,2.215 -0.703,3.238 -0.598,1.027 -2.012,2.258 -4.258,3.703 l 0.996,1.555 21.563,-13.856 -0.996,-1.558 -1.035,0.66 c -2.129,1.371 -4.055,1.601 -5.762,0.687 -1.203,-0.664 -2.754,-2.484 -4.668,-5.468 l -10.957,-17.051 c -4.238,0.328 -8.156,1.078 -11.731,2.258 -3.582,1.175 -7.246,2.968 -10.996,5.379 -10.761,6.914 -16.718,15.617 -17.871,26.109 -0.867,7.867 0.871,15.184 5.227,21.949 3.144,4.903 7.344,8.84 12.578,11.821 6.23,3.542 12.703,5.191 19.422,4.929 5.617,-0.238 11.203,-2.14 16.758,-5.715 2.023,-1.3 3.761,-2.648 5.207,-4.043 1.445,-1.394 3.328,-3.629 5.644,-6.707 1.172,-1.554 2.012,-2.504 2.528,-2.839 0.519,-0.333 1.125,-0.383 1.796,-0.137 0.676,0.238 1.516,1.035 2.493,2.379 l 1.523,-0.977" /><path
         id="path128"
         style="fill:#ed1639;fill-opacity:1;fill-rule:nonzero;stroke:none"
         d="m 839.879,860.742 -1.172,-1.375 -21.594,18.403 1.172,1.378 1.789,-1.523 c 2.078,-1.773 4.102,-2.453 6.082,-2.043 1.27,0.285 3.196,1.938 5.774,4.961 l 27.742,32.555 c 2.18,2.547 3.449,4.371 3.828,5.465 0.285,0.828 0.227,1.796 -0.164,2.894 -0.586,1.523 -1.465,2.793 -2.656,3.809 l -1.778,1.519 1.172,1.375 21.582,-18.402 -1.172,-1.379 -1.816,1.555 c -2.063,1.754 -4.082,2.421 -6.055,2.011 -1.289,-0.265 -3.222,-1.91 -5.8,-4.933 l -27.754,-32.547 c -2.168,-2.555 -3.45,-4.375 -3.829,-5.469 -0.273,-0.832 -0.214,-1.808 0.204,-2.926 0.558,-1.504 1.437,-2.761 2.629,-3.773 l 1.816,-1.555" /><path
         id="path130"
         style="fill:#ed1639;fill-opacity:1;fill-rule:nonzero;stroke:none"
         d="m 890.289,903.555 11.941,-13.418 -10.164,-63.254 28.516,25.394 c 3.047,2.703 4.629,4.735 4.785,6.09 0.215,1.805 -0.539,3.684 -2.265,5.629 l -1.536,1.715 1.36,1.199 15.32,-17.211 -1.348,-1.203 -1.562,1.754 c -1.863,2.09 -3.816,3.008 -5.848,2.758 -1.261,-0.16 -3.273,-1.469 -6.047,-3.938 l -41.679,-37.121 -1.16,1.313 10.781,68.062 -30.449,-27.113 c -3.039,-2.711 -4.641,-4.727 -4.805,-6.055 -0.207,-1.832 0.547,-3.707 2.266,-5.629 l 1.562,-1.75 -1.359,-1.199 -15.321,17.211 1.348,1.199 1.523,-1.711 c 1.883,-2.117 3.848,-3.047 5.887,-2.8 1.262,0.156 3.274,1.472 6.047,3.941 l 34.375,30.621 c 0.41,2.93 0.547,5.004 0.418,6.219 -0.125,1.219 -0.594,2.75 -1.414,4.597 -0.41,0.899 -1.25,2.067 -2.531,3.5 l 1.359,1.2" /><path
         id="path132"
         style="fill:#ed1639;fill-opacity:1;fill-rule:nonzero;stroke:none"
         d="m 953.754,819.172 -22.293,-13.723 7.637,-12.39 c 1.972,-3.215 3.789,-5.063 5.418,-5.547 2.16,-0.66 4.902,-0.078 8.222,1.734 l 0.95,-1.539 -19.629,-12.082 -0.95,1.539 c 2.512,2.074 4.036,3.551 4.563,4.414 0.664,1.098 0.926,2.383 0.781,3.863 -0.148,1.481 -0.937,3.395 -2.394,5.75 l -7.625,12.391 -18.594,-11.441 c -2.492,-1.539 -3.945,-2.578 -4.336,-3.137 -0.41,-0.555 -0.606,-1.203 -0.578,-1.957 0.019,-0.75 0.508,-1.902 1.465,-3.457 l 5.89,-9.559 c 1.961,-3.191 3.614,-5.367 4.942,-6.535 1.328,-1.172 3.054,-2.019 5.175,-2.547 2.774,-0.66 6.446,-0.828 11.024,-0.496 l 1.027,-1.664 -17.129,-3.836 -26.757,43.449 1.542,0.95 1.231,-1.993 c 0.82,-1.332 1.914,-2.398 3.281,-3.199 0.996,-0.613 2.031,-0.805 3.113,-0.582 1.086,0.231 3,1.188 5.735,2.879 l 36.64,22.551 c 3.575,2.203 5.555,3.918 5.946,5.152 0.5,1.68 0.031,3.684 -1.414,6.012 l -1.231,1.996 1.543,0.949 26.758,-43.453 -11.973,-8.226 -0.996,1.621 c 2.606,2.41 4.246,4.304 4.922,5.695 0.672,1.394 0.879,2.961 0.606,4.703 -0.274,1.363 -1.27,3.449 -2.989,6.246 l -9.523,15.469" /><path
         id="path134"
         style="fill:#ed1639;fill-opacity:1;fill-rule:nonzero;stroke:none"
         d="m 970.582,720.879 c 0.242,-1.738 0.508,-3.266 0.789,-4.578 0.285,-1.313 0.578,-2.418 0.879,-3.313 1.105,-3.203 3.293,-5.539 6.563,-7.015 3.273,-1.469 6.886,-1.532 10.832,-0.18 2.703,0.934 5.039,2.348 6.972,4.258 1.953,1.902 3.145,4.07 3.613,6.5 0.45,2.429 0.23,4.933 -0.656,7.523 -0.535,1.567 -1.523,3.485 -2.957,5.746 z m -2.637,-0.902 -18.242,-6.266 c -3.945,-1.352 -6.242,-2.625 -6.894,-3.813 -0.957,-1.636 -1.036,-3.636 -0.215,-6.011 l 0.82,-2.403 -1.699,-0.586 -9.219,26.832 1.707,0.59 0.813,-2.355 c 0.906,-2.649 2.422,-4.246 4.531,-4.793 1.172,-0.285 3.535,0.183 7.109,1.406 l 40.457,13.887 c 3.938,1.359 6.242,2.613 6.914,3.769 0.95,1.668 1.008,3.688 0.188,6.055 l -0.801,2.359 1.707,0.586 7.879,-22.953 c 1.92,-5.605 2.86,-10.218 2.82,-13.847 -0.04,-3.629 -1.06,-7.024 -3.03,-10.18 -1.98,-3.16 -4.856,-5.383 -8.614,-6.672 -5.11,-1.758 -9.844,-1.5 -14.199,0.777 -4.356,2.27 -7.598,6.485 -9.707,12.641 -0.528,1.508 -0.977,3.18 -1.368,5.012 -0.382,1.824 -0.703,3.812 -0.957,5.965" /><path
         id="path136"
         style="fill:#ed1639;fill-opacity:1;fill-rule:nonzero;stroke:none"
         d="m 987.477,662.32 c 0.097,-0.609 0.183,-1.14 0.253,-1.59 0.059,-0.457 0.118,-0.828 0.165,-1.113 1.085,-6.222 3.242,-10.679 6.484,-13.371 3.242,-2.691 6.941,-3.672 11.121,-2.949 4.07,0.707 7.16,2.558 9.26,5.551 2.11,2.988 2.8,6.59 2.07,10.793 -0.32,1.859 -1.06,4.32 -2.23,7.39 z m -25.489,-52.152 -3.027,17.418 26.668,27.375 c -0.352,1.629 -0.613,2.949 -0.789,3.977 -0.078,0.417 -0.137,0.867 -0.215,1.351 -0.059,0.484 -0.117,0.988 -0.176,1.504 l -18.965,-3.289 c -4.101,-0.715 -6.574,-1.609 -7.414,-2.676 -1.199,-1.465 -1.59,-3.414 -1.16,-5.855 l 0.449,-2.551 -1.789,-0.305 -4.851,27.949 1.777,0.305 0.43,-2.449 c 0.476,-2.758 1.719,-4.574 3.719,-5.449 1.105,-0.504 3.527,-0.43 7.246,0.218 l 42.139,7.321 c 4.11,0.711 6.58,1.601 7.42,2.676 1.19,1.492 1.57,3.476 1.15,5.945 l -0.43,2.453 1.78,0.309 4.12,-23.766 c 1.21,-6.926 1.6,-12.121 1.16,-15.586 -0.44,-3.461 -1.82,-6.574 -4.13,-9.336 -2.32,-2.766 -5.35,-4.473 -9.1,-5.129 -4,-0.691 -7.71,0.012 -11.121,2.11 -3.406,2.101 -6.191,5.789 -8.367,11.062 l -16.367,-16.719 c -3.77,-3.824 -6.153,-6.968 -7.188,-9.426 -1.027,-2.46 -1.426,-5.503 -1.191,-9.128 l -1.778,-0.309" /><path
         id="path138"
         style="fill:#ed1639;fill-opacity:1;fill-rule:nonzero;stroke:none"
         d="m 1026.2,576.191 c -0.1,5.926 -2.38,10.641 -6.83,14.149 -5.54,4.367 -13.57,6.469 -24.12,6.297 -10.812,-0.176 -19.082,-2.621 -24.844,-7.34 -4.367,-3.617 -6.504,-8.34 -6.406,-14.168 0.098,-6.215 2.605,-11.309 7.52,-15.285 4.921,-3.973 12.597,-5.871 23.046,-5.703 11.324,0.183 19.744,2.55 25.234,7.101 4.37,3.653 6.5,8.637 6.4,14.949 z m 3.58,-0.867 c 0.14,-8.594 -3.01,-16.094 -9.43,-22.496 -6.43,-6.406 -14.52,-9.687 -24.28,-9.851 -10.058,-0.157 -18.457,2.878 -25.195,9.121 -6.75,6.234 -10.195,13.867 -10.344,22.879 -0.144,9.113 2.969,16.82 9.348,23.128 6.367,6.305 14.707,9.543 24.988,9.708 10.523,0.171 19.153,-3.266 25.913,-10.321 5.86,-6.125 8.85,-13.512 9,-22.168" /><path
         id="path140"
         style="fill:#ed1639;fill-opacity:1;fill-rule:nonzero;stroke:none"
         d="m 1017.44,470.398 -15.44,1.836 0.3,1.825 c 2.75,-0.098 4.77,0.07 6.03,0.48 2.02,0.684 3.62,1.777 4.77,3.281 1.16,1.504 1.97,3.614 2.42,6.309 l 1.54,9.199 -49.896,8.34 c -4.016,0.664 -6.594,0.652 -7.734,-0.051 -1.543,-0.984 -2.539,-2.762 -2.961,-5.293 l -0.379,-2.265 -1.777,0.304 4.628,27.684 1.778,-0.301 -0.391,-2.305 c -0.449,-2.753 0.047,-4.863 1.524,-6.289 0.918,-0.879 3.203,-1.621 6.855,-2.246 l 49.903,-8.332 1.31,7.844 c 0.5,3.055 0.64,5.262 0.41,6.621 -0.33,1.777 -1.27,3.399 -2.8,4.871 -1.54,1.477 -3.77,2.578 -6.68,3.293 l 0.31,1.836 15.18,-3.332 -8.9,-53.309" /><path
         id="path142"
         style="fill:#ed1639;fill-opacity:1;fill-rule:nonzero;stroke:none"
         d="m 1004.25,438.289 -24.793,8.359 -4.648,-13.789 c -1.2,-3.574 -1.473,-6.152 -0.789,-7.714 0.878,-2.082 3.066,-3.821 6.582,-5.215 l -0.567,-1.7 -21.847,7.352 0.578,1.711 c 3.203,-0.598 5.3,-0.82 6.308,-0.684 1.27,0.196 2.422,0.821 3.465,1.875 1.047,1.055 2.004,2.891 2.891,5.516 l 4.648,13.789 -20.683,6.965 c -2.782,0.937 -4.5,1.387 -5.184,1.348 -0.684,-0.051 -1.309,-0.313 -1.875,-0.821 -0.566,-0.488 -1.133,-1.601 -1.719,-3.34 l -3.594,-10.636 c -1.191,-3.543 -1.816,-6.2 -1.855,-7.977 -0.051,-1.769 0.41,-3.633 1.348,-5.605 1.269,-2.559 3.496,-5.489 6.679,-8.789 l -0.625,-1.856 -13.906,10.711 16.289,48.352 1.719,-0.567 -0.754,-2.226 c -0.496,-1.485 -0.613,-3.008 -0.352,-4.571 0.157,-1.152 0.676,-2.07 1.543,-2.754 0.871,-0.695 2.825,-1.554 5.879,-2.578 l 40.774,-13.742 c 3.978,-1.336 6.558,-1.765 7.748,-1.277 1.62,0.703 2.86,2.344 3.74,4.929 l 0.74,2.219 1.72,-0.566 -16.304,-48.36 -13.972,3.934 0.605,1.809 c 3.516,-0.469 6.035,-0.508 7.527,-0.137 1.497,0.371 2.832,1.211 3.997,2.539 0.878,1.074 1.843,3.172 2.89,6.289 l 5.797,17.207" /><path
         id="path144"
         style="fill:#ed1639;fill-opacity:1;fill-rule:nonzero;stroke:none"
         d="m 963.578,338.113 -14.07,6.621 0.867,1.641 c 2.59,-0.969 4.543,-1.445 5.871,-1.445 2.137,0 3.992,0.547 5.567,1.601 1.582,1.063 3.007,2.801 4.285,5.215 l 4.367,8.25 -44.727,23.652 c -3.593,1.907 -6.035,2.707 -7.343,2.395 -1.79,-0.449 -3.282,-1.816 -4.485,-4.082 l -1.074,-2.031 -1.59,0.84 13.125,24.824 1.602,-0.852 -1.106,-2.07 c -1.308,-2.469 -1.492,-4.617 -0.535,-6.453 0.586,-1.114 2.52,-2.539 5.801,-4.278 l 44.707,-23.652 3.73,7.031 c 1.446,2.735 2.266,4.785 2.469,6.141 0.246,1.789 -0.125,3.625 -1.121,5.508 -0.988,1.886 -2.754,3.633 -5.293,5.234 l 0.867,1.641 13.36,-7.957 -25.274,-47.774" /><path
         id="path146"
         style="fill:#ed1639;fill-opacity:1;fill-rule:nonzero;stroke:none"
         d="m 921.332,279.969 -12.82,8.789 1.113,1.472 c 2.402,-1.355 4.258,-2.156 5.555,-2.371 2.121,-0.332 4.035,-0.097 5.761,0.704 1.731,0.8 3.411,2.285 5.071,4.472 l 5.625,7.43 -40.352,30.519 c -3.242,2.45 -5.539,3.633 -6.875,3.536 -1.836,-0.157 -3.535,-1.27 -5.078,-3.321 l -1.387,-1.828 -1.445,1.086 16.934,22.402 1.445,-1.093 -1.406,-1.875 c -1.7,-2.227 -2.219,-4.317 -1.575,-6.282 0.403,-1.199 2.082,-2.918 5.04,-5.156 l 40.343,-30.515 4.805,6.347 c 1.863,2.481 3.008,4.363 3.437,5.684 0.528,1.719 0.45,3.594 -0.234,5.605 -0.664,2.031 -2.129,4.024 -4.387,6.016 l 1.125,1.484 11.914,-9.992 -32.609,-43.113" /><path
         id="path148"
         style="fill:#ed1639;fill-opacity:1;fill-rule:nonzero;stroke:none"
         d="m 858.277,273.543 26.707,-11.348 -10.41,27.215 z m -3.496,1.629 18.36,17.883 -4.063,10.625 c -1.008,2.617 -1.953,4.375 -2.832,5.281 -0.703,0.723 -1.672,1.027 -2.891,0.898 -1.23,-0.117 -3.058,-1.211 -5.507,-3.269 l -1.25,1.289 14.929,14.551 1.262,-1.301 c -1.641,-2.274 -2.48,-3.984 -2.519,-5.106 -0.098,-2.285 0.8,-5.839 2.695,-10.675 l 21.328,-55.282 -1.23,-1.203 -54.942,23.391 c -4.414,1.875 -7.617,2.754 -9.629,2.644 -2.004,-0.105 -4.023,-1.043 -6.074,-2.82 l -1.27,1.297 18.719,18.223 1.262,-1.297 c -1.797,-1.934 -2.774,-3.488 -2.91,-4.668 -0.137,-1.192 0.156,-2.168 0.918,-2.93 0.996,-1.035 3.035,-2.187 6.133,-3.496 l 9.511,-4.035" /><path
         id="path150"
         style="fill:#ed1639;fill-opacity:1;fill-rule:nonzero;stroke:none"
         d="m 814.438,214.129 c -2.821,-1.875 -5.887,-2.481 -9.208,-1.816 -3.312,0.664 -5.91,2.402 -7.792,5.214 -1.875,2.821 -2.481,5.887 -1.817,9.207 0.664,3.313 2.41,5.911 5.234,7.786 2.813,1.882 5.879,2.488 9.2,1.816 3.32,-0.664 5.918,-2.402 7.793,-5.215 1.875,-2.824 2.48,-5.879 1.836,-9.199 -0.645,-3.301 -2.403,-5.899 -5.246,-7.793" /></g></g></svg>