<?xml version="1.0" encoding="utf-8"?>
<!-- Generator: Adobe Illustrator 25.0.0, SVG Export Plug-In . SVG Version: 6.00 Build 0)  -->
<svg version="1.1" id="Livello_1" xmlns="http://www.w3.org/2000/svg" xmlns:xlink="http://www.w3.org/1999/xlink" x="0px" y="0px"
	 viewBox="0 0 376.8 200" style="enable-background:new 0 0 376.8 200;" xml:space="preserve">
<style type="text/css">
	.st0{fill:#FFFFFF;}
	.st1{fill:#00A053;}
	.st2{fill:#1A171B;}
	.st3{fill:none;stroke:#1A171B;stroke-width:2.300000e-02;stroke-miterlimit:3.864;}
	.st4{fill:#C80019;}
	.st5{fill:#E1001A;}
	.st6{fill:none;stroke:#E1001A;stroke-width:7.600000e-02;stroke-miterlimit:3.864;}
	.st7{fill:#FFD400;}
	.st8{fill:none;stroke:#FFD400;stroke-width:7.600000e-02;stroke-miterlimit:3.864;}
	.st9{clip-path:url(#SVGID_2_);fill:none;stroke:#FFD400;stroke-width:1.151;stroke-miterlimit:3.864;}
	.st10{clip-path:url(#SVGID_2_);fill:#FFD400;}
	.st11{clip-path:url(#SVGID_2_);fill:none;stroke:#FFD400;stroke-width:7.600000e-02;stroke-miterlimit:3.864;}
</style>
<g>
	<path class="st0" d="M195,90.2c0-44.3,35.9-80.2,80.2-80.2s80.2,35.9,80.2,80.2s-35.9,80.2-80.2,80.2S195,134.5,195,90.2"/>
	<path class="st1" d="M197.5,71.6l24.6,6.7c0,0-2.9,11-0.6,21.7c2.4,10.7,7.4,22.9,16.1,29.3c8.7,6.5,12.5,9.4,20.3,8.4
		c7.9-1,16.4-6.7,19.1-16.7c0.4-1.4,0.5-1.1,1.6-1.3c1.1-0.2,27.1-6.2,27.9-6.5c0.9-0.2,3.1-0.9,4.5-2.3c1.4-1.3,6.3-5.2,6.7-5.7
		c0.4-0.5,0.3-0.2,1.3-0.2c0.9,0,4.8-0.2,6.4-1.9c1.6-1.7,4.6-4.1,4.7-10.7c0.2-9-1.3-14-1.3-14l24.9-5.1c1.3,5.6,1.9,11.2,1.9,17.2
		c0,44.3-35.9,80.2-80.2,80.2s-80.2-35.9-80.2-80.2C195.3,84.3,196.1,77.5,197.5,71.6"/>
	<polygon class="st0" points="200.3,98.1 200.1,93.6 206.4,93.3 200.1,90.3 206.6,87.8 200.3,87 200.9,82.6 213,84.3 212.8,88.8 
		207.8,90.6 212.7,92.8 212.5,97.2 	"/>
	<path class="st0" d="M208.9,108.6c0.7-0.2,1.2-0.7,1.4-1.3c0.2-0.6,0.3-1.2,0.2-1.7c-0.2-1.1-0.8-1.8-1.6-2.1
		c-0.5-0.2-1.1-0.2-1.7-0.1c-0.8,0.2-1.5,0.5-1.9,1.1s-0.5,1.3-0.3,2.1c0.2,1,0.8,1.7,1.7,2.1c0.5,0.2,1,0.2,1.6,0.1
		c0.1,0,0.2,0,0.3-0.1C208.8,108.6,208.9,108.6,208.9,108.6 M207.6,113c-1.6-0.1-2.9-0.6-4-1.7c-1.1-1-1.8-2.4-2.1-4.1
		c-0.1-0.5-0.2-1-0.2-1.5c-0.1-1.6,0.4-3,1.3-4.2c1-1.3,2.3-2.1,3.9-2.4c1.8-0.3,3.4,0,4.9,1.1s2.4,2.6,2.8,4.6
		c0.1,0.4,0.1,0.9,0.2,1.3c0.1,1.4-0.2,2.6-0.9,3.8c-0.6,1.1-1.6,2-2.8,2.5c-0.4,0.2-0.9,0.4-1.4,0.5
		C208.6,113,208.1,113.1,207.6,113"/>
	<polygon class="st0" points="211.1,124.9 207.7,125.4 203.9,116.1 213.9,116.8 212.5,113.2 215.9,112.8 219.4,121.4 209.4,120.7 	
		"/>
	<polygon class="st0" points="217.4,134.9 214.2,136 208.9,127.6 218.8,126.5 216.8,123.2 220.1,122.1 225,130 215,131.1 	"/>
	<path class="st0" d="M224.6,140.5l2.4-3.9l-4,2.1L224.6,140.5z M225.1,147.9l-3.4-3l1.2-1.9l-2.7-2.9l-1.9,1.1l-2.8-3.6l12-5
		l3.4,3.6L225.1,147.9z"/>
	<path class="st0" d="M236.6,146.9c0.4-0.8,0.1-1.5-0.8-2.1l-0.2-0.2l-1.9,2.6l0.3,0.2c0.3,0.2,0.6,0.4,0.9,0.4
		c0.7,0,1.2-0.1,1.5-0.6C236.5,147.2,236.6,147.1,236.6,146.9 M236.2,155.9l-3.9-2.3l1.3-6.1l-3.1,4.3l-3.7-2.4l7.3-10.1l4.8,3.5
		c1,0.7,1.7,1.5,2.1,2.2c0.4,0.7,0.5,1.5,0.4,2.3c0,0.4-0.1,0.7-0.3,1s-0.3,0.6-0.5,0.8c-0.5,0.7-1.3,1.1-2.2,1.2
		c-0.4,0-0.7,0-1.1,0L236.2,155.9z"/>
	<polygon class="st0" points="248,158 245.8,160.6 238.3,157.1 243.5,145.9 250.8,149.4 250.2,152.7 246.1,150.8 245.5,151.9 
		248.3,153.2 247,155.9 244.3,154.7 243.7,156 	"/>
	<polygon class="st0" points="258.8,161.2 257,164.3 249.4,162 252.9,150.3 257.2,151.3 254.6,159.9 	"/>
	<polygon class="st0" points="269.5,162.5 268.2,165.9 260.3,164.9 261.8,152.8 266.2,153.1 265.1,161.9 	"/>
	<path class="st0" d="M278.3,160.7l-1.5-4.3l-0.9,4.5L278.3,160.7z M284.4,165.1l-4.5,0.7l-0.7-2.1l-3.9,0.3l-0.4,2.2l-4.6-0.1
		l3.7-12.4l5-0.3L284.4,165.1z"/>
	<path class="st0" d="M297.8,154.1c-0.7-0.7-1.5-1-2.4-0.7l-0.3,0.1l-0.4,0.1l1.9,4.8l0.3-0.1l0.3-0.1c0.4-0.2,0.8-0.5,1-0.8
		s0.3-0.7,0.3-1.2s0-0.9-0.2-1.2C298.2,154.6,298,154.3,297.8,154.1 M302,152.5c0.1,0.1,0.2,0.3,0.2,0.5c0.1,0.2,0.1,0.3,0.2,0.5
		c0.6,1.7,0.5,3.3-0.4,5c-0.4,0.7-0.8,1.3-1.4,1.8c-0.5,0.5-1.2,0.9-2.1,1.2l-0.7,0.3l-4.2,1.6l-4.4-11.5l4.3-1.7l0.7-0.2
		c1.4-0.4,2.5-0.5,3.5-0.4s1.9,0.6,2.9,1.3C301.2,151.3,301.7,151.8,302,152.5"/>
	<polygon class="st0" points="311.2,155.3 307.4,157.6 301.5,146.8 305.2,144.5 	"/>
	<path class="st0" d="M321.6,141.9c-0.1-0.1-0.3-0.2-0.4-0.2c-0.5-0.1-0.8,0-1.2,0.3l-0.2,0.2l-0.5,0.5l1.7,1.8l0.3-0.3l0.2-0.2
		c0.7-0.7,0.8-1.3,0.3-1.9C321.7,142,321.7,141.9,321.6,141.9 M318.5,138.8c-0.2-0.2-0.4-0.3-0.7-0.3c-0.3,0-0.5,0.1-0.7,0.3
		l-0.3,0.2l-0.5,0.4l1.5,1.6l0.5-0.5c0.3-0.3,0.5-0.6,0.5-0.9C318.9,139.3,318.8,139,318.5,138.8 M324.9,138.9
		c0.3,0.2,0.5,0.4,0.7,0.6c0.7,0.7,0.9,1.6,0.7,2.6c-0.2,1-0.9,2-2,3.1l-4.6,4.3l-8.4-9l4.4-4.1l0.6-0.5c0.9-0.8,1.7-1.3,2.4-1.4
		c0.7-0.1,1.5,0.1,2.2,0.6c0.2,0.1,0.4,0.3,0.5,0.5c0.4,0.5,0.7,1,0.7,1.5c0.1,0.7,0,1.2-0.3,1.7l0.2-0.1l0.2-0.1
		C323.3,138.3,324.1,138.4,324.9,138.9"/>
	<path class="st0" d="M332,128.4l0.3,0.2c1.2,0.9,1.9,1.9,2,3.1c0.1,1.2-0.3,2.5-1.4,3.9c-0.1,0.2-0.3,0.4-0.4,0.5
		c-0.2,0.2-0.4,0.4-0.5,0.5c-1,1.1-2.1,1.8-3.1,1.9c-1,0.1-2.1-0.2-3.2-1l-0.3-0.2l-6.1-4.4l2.4-3.7l6.2,4.5l0.5,0.3h0.1l0.2,0.1
		c0.4,0.2,0.8,0,1.2-0.5c0.1-0.1,0.1-0.2,0.2-0.3c0.2-0.4,0.2-0.8,0-1.1L330,132l-0.1-0.1l-0.5-0.4l-6-4.3l2.4-3.7L332,128.4z"/>
	<polygon class="st0" points="332.6,117.8 330.9,121.1 332.4,121.8 333.5,119.5 336.4,120.9 335.3,123.2 338.8,124.9 337.1,128.9 
		325.8,123.5 329,117 	"/>
	<path class="st0" d="M338.8,111.7l-4.6-0.1l3.8,2.4L338.8,111.7z M345,107.6l-0.9,4.4l-2.2-0.1l-1.2,3.8l1.9,1.1l-1.7,4.2
		l-10.3-7.9l1.5-4.8L345,107.6z"/>
	<polygon class="st0" points="342.8,96.9 346.2,98.2 345.3,106.1 333.1,104.6 333.4,100.2 342.3,101.3 	"/>
	<path class="st0" d="M341.2,88.6l-4.4,1.4l4.4,1.1V88.6z M345.8,82.6l0.5,4.5l-2.1,0.6l0.1,3.9l2.2,0.5l-0.2,4.5L334,92.5l-0.2-5
		L345.8,82.6z"/>
	<path class="st2" d="M228.8,76.8c0,0,1.5,4,6.9,7s8.9,2.1,10.1,2.1c1.2,0,6.9-1.4,9.8-5.2c2.9-3.8,7.7-10.5,8.1-10.9
		s0.2-1.4,2.7-1.6s18.5-1,19.9-1s2.5,0,3.9,2.1s2,3.6,2.3,4s0,0.6,2.7,0.9c2.9,0.3,20.5,2.8,21.8,3c1.4,0.2,4.9,0.2,5.7,3.4
		c0.8,3.2,1.2,4.3,1.2,7.1c0,2.7,0.2,8.6-0.2,9.6c-0.4,1-1,1.9-3.1,2.3s-3.5-0.1-3.5-0.1s-9.4,8-9.9,8.5s-1.1,1.1-2.6,1.4
		s-25,6.2-25.5,6.3c-0.5,0.1-0.6-0.3-0.6-0.7c0-0.4,0-5.7,0-6.2s-0.7-2.1-2.8-2.1c-2.1,0-3,1.7-3.1,3s0.3,4.1-0.2,6.4
		c-0.6,2.6-2.1,7.4-4.5,10.2c-3.7,4.4-5.9,5.7-6.9,5.9s-1-0.1-0.7-0.7c0.3-0.6,1.9-5.9,2.1-6.5c0.1-0.6,1.5-3.3-1.6-4.5
		c-3-1.2-3.8,1.2-3.9,1.4c-0.1,0.3-1.9,5.7-2.3,7.7c-0.5,2.1-0.8,3.2-0.9,3.4c0,0.2-0.2,0.8-1.3,0.2c-1.2-0.6-7.7-4.2-12-8
		s-7.2-8.1-8.9-11.6s-3.2-7.9-3.6-9.3c-0.4-1.3-1.1-3.9-1.1-4.6s0.5-1.5,0.9-0.5s2,5.2,4.6,7.8c2.7,2.6,8,7,16.8,7.1
		s14.3-3.5,17.7-6.6c3.4-3.2,7.1-10.5,7.3-15.5c0.2-5,0-7-1.2-8s-1.6-1.5-5.3-0.8c-3.7,0.7-7.2,2.2-8.5,3c-1.3,0.7-2.3,1.3-2.3,3.1
		c0,1.9-0.4,6.2-2.5,8.6s-6,5.9-11.4,5.2c-5.5-0.7-7.8-3.3-9-4.7c-1.2-1.5-1.6-3.2-2.5-3.8c-0.9-0.6-2.1-1-3.1-0.4s-0.9,1-1.1,1.2
		c-0.2,0.1-0.6,0.5-0.7-0.5c-0.1-1,0-5.6,0.3-7.8c0.2-2.2,0.8-6.4,1.2-7.6C228.4,78.4,228.8,76.8,228.8,76.8"/>
	<path class="st3" d="M228.8,76.8c0,0,1.5,4,6.9,7s8.9,2.1,10.1,2.1c1.2,0,6.9-1.4,9.8-5.2c2.9-3.8,7.7-10.5,8.1-10.9
		s0.2-1.4,2.7-1.6s18.5-1,19.9-1s2.5,0,3.9,2.1s2,3.6,2.3,4s0,0.6,2.7,0.9c2.9,0.3,20.5,2.8,21.8,3c1.4,0.2,4.9,0.2,5.7,3.4
		c0.8,3.2,1.2,4.3,1.2,7.1c0,2.7,0.2,8.6-0.2,9.6c-0.4,1-1,1.9-3.1,2.3s-3.5-0.1-3.5-0.1s-9.4,8-9.9,8.5s-1.1,1.1-2.6,1.4
		s-25,6.2-25.5,6.3c-0.5,0.1-0.6-0.3-0.6-0.7c0-0.4,0-5.7,0-6.2s-0.7-2.1-2.8-2.1c-2.1,0-3,1.7-3.1,3s0.3,4.1-0.2,6.4
		c-0.6,2.6-2.1,7.4-4.5,10.2c-3.7,4.4-5.9,5.7-6.9,5.9s-1-0.1-0.7-0.7c0.3-0.6,1.9-5.9,2.1-6.5c0.1-0.6,1.5-3.3-1.6-4.5
		c-3-1.2-3.8,1.2-3.9,1.4c-0.1,0.3-1.9,5.7-2.3,7.7c-0.5,2.1-0.8,3.2-0.9,3.4c0,0.2-0.2,0.8-1.3,0.2c-1.2-0.6-7.7-4.2-12-8
		s-7.2-8.1-8.9-11.6s-3.2-7.9-3.6-9.3c-0.4-1.3-1.1-3.9-1.1-4.6s0.5-1.5,0.9-0.5s2,5.2,4.6,7.8c2.7,2.6,8,7,16.8,7.1
		s14.3-3.5,17.7-6.6c3.4-3.2,7.1-10.5,7.3-15.5c0.2-5,0-7-1.2-8s-1.6-1.5-5.3-0.8c-3.7,0.7-7.2,2.2-8.5,3c-1.3,0.7-2.3,1.3-2.3,3.1
		c0,1.9-0.4,6.2-2.5,8.6s-6,5.9-11.4,5.2c-5.5-0.7-7.8-3.3-9-4.7c-1.2-1.5-1.6-3.2-2.5-3.8c-0.9-0.6-2.1-1-3.1-0.4s-0.9,1-1.1,1.2
		c-0.2,0.1-0.6,0.5-0.7-0.5c-0.1-1,0-5.6,0.3-7.8c0.2-2.2,0.8-6.4,1.2-7.6C228.4,78.4,228.8,76.8,228.8,76.8z"/>
	<path class="st4" d="M324.2,66.9l23.8-10l2.9,7.3l-29.1,7.7c0,0-7.5-1.1-9.5-1.3c-2-0.2-14.3-2-15.1-2.1c-0.8-0.1-0.9-0.4-1.1-0.7
		c-0.2-0.4-1.1-2.1-1.9-3.4c-0.8-1.3-2.9-2.5-3.8-3s-1.6-0.5-2.5-0.5c-1-0.1-20.4,0.4-22.5,0.5s-2.5,0.5-3.6,1s-2.4,1.4-2.9,2
		c-0.5,0.5-4.2,6-5.3,7.5c-1.1,1.4-3.3,4.4-5.3,6c-1.8,1.4-4.7,1.7-7.3,1.2s-4.5-2.2-5.5-4.1c-1-2-1.4-3.3-2.7-3.9s-2.8-0.3-3.7,0.5
		c-0.9,0.7-1.3,1.3-1.3,1.3l-27.6-10l3.4-7.9L226,67l2.7-4.9l-21.4-13.4l5.2-7.4l19.1,17.1l3.7-4.1L217.6,36l6.3-6.1L239.2,50
		l4.7-3.8l-14-20.9l6.9-4.4l11.1,22.3l5-2.6l-10-23.1l8.7-3.3l6.4,24.4l5.2-1.5l-5.5-24.8l8.5-1.4l1.6,25.4l5.7-0.5l0.1-25.8
		l8.4,0.5l-3,25.4l5.5,0.6l4.8-25.4l8.3,1.9L290,38l4.5,1.7l10.2-24.2l7.8,3.5l-12.9,22.9l4.6,2.5l14-22l6.7,4.7l-16.4,20.4l4.2,3.5
		l18-18.8l5.8,6.3l-20.7,16.1l3.2,3.7L340.3,44l4.3,7.1l-23,11.4L324.2,66.9z"/>
	<path class="st1" d="M235.3,178.3l-2.3,3.2c-0.4-0.1-0.8-0.3-1.2-0.4c-0.4-0.2-0.7-0.3-1-0.5c-0.2-0.1-0.4-0.2-0.6-0.4
		c-0.2-0.1-0.4-0.3-0.6-0.4c-1.4-1.1-2.3-2.4-2.7-3.9s-0.2-2.9,0.5-4.3c0.2-0.4,0.5-0.8,0.8-1.2c1-1.1,2.3-1.8,3.8-2.1
		c1.6-0.3,3.1,0,4.7,0.9c0.2,0.1,0.4,0.2,0.6,0.3c0.2,0.1,0.4,0.3,0.7,0.4l0.4,0.2l0.3,0.2l-1.3,3.8c-0.1-0.1-0.1-0.2-0.2-0.2
		c-0.1-0.1-0.2-0.2-0.3-0.3c-0.3-0.3-0.6-0.5-1-0.7c-0.9-0.5-1.7-0.7-2.4-0.6c-0.7,0.1-1.3,0.4-1.7,1c-0.1,0.1-0.2,0.3-0.3,0.5
		c0,0.1-0.1,0.2-0.1,0.3s-0.1,0.2-0.1,0.2c-0.4,1.4,0.2,2.6,1.9,3.5c0.3,0.1,0.5,0.2,0.7,0.3s0.5,0.1,0.9,0.2H235.3z"/>
	<path class="st1" d="M244.3,180.3l0.3-4.6l-2.6,3.8L244.3,180.3z M248.2,186.7l-4.4-1.1l0.2-2.2l-3.7-1.3l-1.2,1.8l-4.2-1.8l8.3-10
		l4.7,1.6L248.2,186.7z"/>
	<polygon class="st1" points="264.5,189.5 260.1,189.2 260.5,182.9 256.8,188.8 255.1,182.1 253.6,188.2 249.3,187.1 252.5,175.3 
		256.8,176 258,181.2 260.8,176.6 265.2,177.3 	"/>
	<path class="st1" d="M273.3,182.3c0-0.1,0-0.1,0-0.3c0-0.1,0-0.1,0-0.3c-0.1-0.3-0.2-0.6-0.4-0.7c-0.2-0.2-0.4-0.3-0.8-0.3h-0.2
		h-0.2h-0.2v2.7h0.2h0.2C272.7,183.3,273.2,183,273.3,182.3 M277.1,181.4c0,0.1,0,0.2,0,0.3s0,0.2,0,0.4c0,1.2-0.5,2.3-1.4,3.1
		c-0.5,0.4-1,0.7-1.6,0.9c-0.5,0.2-1.3,0.2-2.2,0.2h-0.3h-0.3l-0.1,3.5l-4.4,0.2l0.2-12.5l4.5,0.1h0.6h0.4c0.1,0,0.3,0,0.4,0
		c0.2,0,0.3,0,0.6,0.1c1.1,0.2,1.9,0.6,2.4,1.2C276.6,179.6,276.9,180.4,277.1,181.4"/>
	<path class="st1" d="M285.8,184.1l-1.7-4.2l-0.7,4.5L285.8,184.1z M292.1,188.1l-4.4,0.9l-0.8-2.1l-3.9,0.5l-0.3,2.2l-4.6,0.2
		l3-12.6l4.9-0.6L292.1,188.1z"/>
	<polygon class="st1" points="306.4,184.2 302.1,185.5 296.2,180.5 298,186.7 294.1,188.1 290.4,176.2 294.7,174.9 300.6,179.9 
		298.8,173.8 302.7,172.3 	"/>
	<path class="st1" d="M313.7,175.7l-3-3.5l0.8,4.5L313.7,175.7z M320.9,177.6l-3.9,2.3l-1.4-1.7l-3.6,1.7l0.4,2.2l-4.3,1.6l-1-12.9
		l4.5-2.1L320.9,177.6z"/>
</g>
<g>
	<path class="st5" d="M71.3,188.4c0.2,0.2,0.5,0.3,1,0.3c1.4,0,2.6-0.5,3.5-1.5c0.9-1,1.4-2.9,1.4-5.7c0-1.7-0.2-3.1-0.7-4.3
		c-0.8-1.9-2.1-2.9-4-2.9c-0.6,0-1,0.1-1.2,0.4c-0.1,0.2-0.2,0.5-0.2,1v11.7C71,187.8,71.1,188.2,71.3,188.4 M65.2,188.9
		c0.6,0,1-0.1,1.3-0.3c0.5-0.2,0.7-0.7,0.7-1.3v-11.7c0-0.6-0.2-1-0.7-1.3c-0.2-0.1-0.7-0.2-1.3-0.3v-0.6h7.3c2.9,0,5.2,0.8,6.7,2.3
		c1.4,1.4,2.1,3.3,2.1,5.7c0,2.2-0.7,4-2.1,5.5c-1.6,1.7-3.7,2.5-6.5,2.5h-7.5V188.9z"/>
	<path class="st5" d="M83.5,186.4c0.4-0.4,0.9-0.6,1.4-0.6c0.6,0,1,0.2,1.4,0.6c0.4,0.4,0.6,0.9,0.6,1.4c0,0.6-0.2,1-0.6,1.4
		c-0.4,0.4-0.9,0.6-1.4,0.6c-0.6,0-1-0.2-1.4-0.6c-0.4-0.4-0.6-0.9-0.6-1.4C82.9,187.3,83.1,186.8,83.5,186.4"/>
	<path class="st5" d="M103.1,175.4c1.6,1.6,2.4,3.6,2.4,6.1c0,2.5-0.8,4.5-2.4,6.1c-1.6,1.5-3.6,2.3-6,2.3c-2.5,0-4.6-0.8-6.2-2.5
		c-1.5-1.6-2.2-3.5-2.2-5.8c0-2.5,0.8-4.5,2.3-6.1c1.6-1.6,3.6-2.4,6.1-2.4C99.6,173.1,101.6,173.9,103.1,175.4 M100.8,186
		c0.4-1.1,0.5-2.6,0.5-4.5c0-2.5-0.4-4.4-1.1-5.7c-0.8-1.3-1.8-1.9-3.1-1.9c-1.8,0-3,1.1-3.7,3.2c-0.3,1.1-0.5,2.6-0.5,4.4
		c0,1.9,0.2,3.3,0.5,4.5c0.7,2.1,1.9,3.2,3.7,3.2C98.9,189.2,100.2,188.1,100.8,186"/>
	<path class="st5" d="M107.9,186.4c0.4-0.4,0.9-0.6,1.4-0.6c0.6,0,1,0.2,1.4,0.6c0.4,0.4,0.6,0.9,0.6,1.4c0,0.6-0.2,1-0.6,1.4
		c-0.4,0.4-0.9,0.6-1.4,0.6c-0.6,0-1-0.2-1.4-0.6c-0.4-0.4-0.6-0.9-0.6-1.4C107.3,187.3,107.5,186.8,107.9,186.4"/>
	<path class="st5" d="M112.8,188.9c0.8-0.1,1.3-0.2,1.6-0.5c0.3-0.3,0.4-0.8,0.4-1.7v-10.5c0-0.9-0.1-1.5-0.4-1.7
		c-0.3-0.2-0.8-0.4-1.6-0.5v-0.6h7.7c2,0,3.6,0.3,4.6,1c1.1,0.7,1.6,1.8,1.6,3.4c0,0.8-0.2,1.5-0.6,2.2c-0.4,0.7-1.1,1.2-2,1.7
		c-0.7,0.3-1.4,0.5-2.2,0.5c-0.7,0.1-1.8,0.1-3.2,0.1v4.4c0,0.9,0.1,1.4,0.4,1.7c0.3,0.3,0.8,0.4,1.7,0.5v0.6h-7.9V188.9z
		 M121.4,181c0.8-0.5,1.1-1.5,1.1-3.1c0-1.1-0.2-2-0.5-2.6c-0.4-0.7-1.1-1-2.1-1c-0.5,0-0.8,0.1-1,0.2c-0.2,0.1-0.3,0.3-0.3,0.7v6.4
		C120,181.5,121,181.3,121.4,181"/>
	<path class="st5" d="M126.2,186.4c0.4-0.4,0.9-0.6,1.4-0.6c0.6,0,1,0.2,1.4,0.6c0.4,0.4,0.6,0.9,0.6,1.4c0,0.6-0.2,1-0.6,1.4
		c-0.4,0.4-0.9,0.6-1.4,0.6c-0.6,0-1-0.2-1.4-0.6c-0.4-0.4-0.6-0.9-0.6-1.4C125.6,187.3,125.8,186.8,126.2,186.4"/>
	<polygon class="st5" points="151.8,139.1 141.9,137 142.5,146.8 133.1,143.2 132.1,153 123.5,148 120.9,157.5 113.2,151.3 
		109.1,160.3 102.5,152.9 97,161.2 91.6,152.9 84.9,160.2 80.9,151.2 73.1,157.5 70.6,147.9 61.9,152.9 61,143.1 51.6,146.7 
		52.2,136.9 42.4,139 44.6,129.3 34.5,129.9 38.2,120.8 28.2,119.8 33.3,111.3 23.5,108.8 30,101.2 20.7,97.3 28.3,90.8 19.8,85.5 
		28.3,80.2 20.8,73.6 30,69.7 23.6,62.1 33.4,59.7 28.3,51.2 38.3,50.2 34.7,41.1 44.7,41.7 42.6,32 52.4,34.2 51.8,24.4 61.2,28 
		62.2,18.2 70.8,23.2 73.4,13.7 81.1,19.9 85.2,10.9 91.8,18.3 97.3,10 102.7,18.3 109.4,11 113.4,20 121.2,13.7 123.7,23.3 
		132.4,18.3 133.3,28.1 142.7,24.5 142.1,34.3 151.9,32.2 149.7,41.8 159.8,41.3 156.1,50.4 166.1,51.4 161,59.9 170.8,62.4 
		164.3,70 173.6,73.9 166,80.4 174.5,85.7 166,91 173.5,97.6 164.3,101.5 170.7,109.1 160.9,111.5 166,120 156,121 159.6,130.1 
		149.6,129.5 	"/>
	<polygon class="st6" points="151.8,139.1 141.9,137 142.5,146.8 133.1,143.2 132.1,153 123.5,148 120.9,157.5 113.2,151.3 
		109.1,160.3 102.5,152.9 97,161.2 91.6,152.9 84.9,160.2 80.9,151.2 73.1,157.5 70.6,147.9 61.9,152.9 61,143.1 51.6,146.7 
		52.2,136.9 42.4,139 44.6,129.3 34.5,129.9 38.2,120.8 28.2,119.8 33.3,111.3 23.5,108.8 30,101.2 20.7,97.3 28.3,90.8 19.8,85.5 
		28.3,80.2 20.8,73.6 30,69.7 23.6,62.1 33.4,59.7 28.3,51.2 38.3,50.2 34.7,41.1 44.7,41.7 42.6,32 52.4,34.2 51.8,24.4 61.2,28 
		62.2,18.2 70.8,23.2 73.4,13.7 81.1,19.9 85.2,10.9 91.8,18.3 97.3,10 102.7,18.3 109.4,11 113.4,20 121.2,13.7 123.7,23.3 
		132.4,18.3 133.3,28.1 142.7,24.5 142.1,34.3 151.9,32.2 149.7,41.8 159.8,41.3 156.1,50.4 166.1,51.4 161,59.9 170.8,62.4 
		164.3,70 173.6,73.9 166,80.4 174.5,85.7 166,91 173.5,97.6 164.3,101.5 170.7,109.1 160.9,111.5 166,120 156,121 159.6,130.1 
		149.6,129.5 	"/>
	<path class="st7" d="M28.1,85.6c0-37.3,30.9-67.5,69.1-67.5c38.1,0,69.1,30.2,69.1,67.5c0,37.3-30.9,67.5-69.1,67.5
		C59,153.1,28.1,122.9,28.1,85.6"/>
	<path class="st5" d="M51.1,85.6c0-24.8,20.6-45,46-45c25.4,0,46,20.1,46,45c0,24.8-20.6,45-46,45C71.7,130.6,51.1,110.4,51.1,85.6"
		/>
	<path class="st6" d="M51.1,85.6c0-24.8,20.6-45,46-45c25.4,0,46,20.1,46,45c0,24.8-20.6,45-46,45C71.7,130.6,51.1,110.4,51.1,85.6z
		"/>
	<path class="st5" d="M54.1,121.1c-0.5,0.4-1.3,0.3-1.7-0.2c-0.4-0.5-0.3-1.3,0.2-1.7c0.5-0.4,1.3-0.3,1.7,0.3
		C54.7,120,54.6,120.7,54.1,121.1"/>
	<path class="st5" d="M50.6,111.9c-0.1-0.2-0.2-0.6-0.4-0.9c-0.9-1.9-2.5-2.4-4.3-1.5c-1.6,0.8-2.2,2.2-1.2,4.1
		c0.2,0.5,0.4,0.8,0.6,1L50.6,111.9z M45,115.8c-0.4-0.5-0.7-1.1-1.1-1.8c-0.6-1.3-0.8-2.4-0.5-3.2c0.2-0.9,0.8-1.7,1.9-2.2
		c1.1-0.5,2.2-0.6,3.1-0.3c1,0.3,1.8,1.2,2.5,2.6c0.3,0.6,0.5,1.2,0.7,1.7L45,115.8z"/>
	<polygon class="st5" points="43.5,101.9 44.4,104.7 47,103.9 46,100.7 46.8,100.5 48.1,104.6 40.9,107 39.6,103 40.4,102.7 
		41.4,105.7 43.7,105 42.7,102.1 	"/>
	<path class="st5" d="M46.2,98.1l-7.4,1.3l-0.2-1.1l3.3-3.1c0.8-0.7,1.5-1.3,2.2-1.8l0,0c-1,0.3-1.9,0.4-3,0.6l-3.1,0.5l-0.2-0.9
		l7.4-1.3l0.2,1L42,96.5c-0.7,0.7-1.5,1.3-2.2,1.8l0,0c0.9-0.2,1.8-0.4,3.1-0.6l3.2-0.5L46.2,98.1z"/>
	<path class="st5" d="M41.2,89.1c1.6,0,3.1-0.9,3-2.5c0-1.6-1.5-2.5-3.2-2.4c-1.5,0-3.1,0.8-3,2.5C38,88.3,39.5,89.1,41.2,89.1
		 M41,83.1c2.6,0,4,1.6,4,3.5c0,2.1-1.5,3.5-3.8,3.5c-2.4,0-4-1.5-4-3.5C37.2,84.5,38.7,83.1,41,83.1"/>
	<path class="st5" d="M42.8,73.8c-1.1-0.1-2.3-0.3-3.2-0.4l0,0c0.8,0.4,1.7,0.9,2.7,1.4l3.4,1.9l-0.1,0.7l-3.8,0.7
		c-1.1,0.2-2.1,0.3-3.1,0.4l0,0c0.9,0.2,2.2,0.4,3.3,0.7l3.2,0.7L45,81l-7.4-1.8l0.2-1.3l3.8-0.7c1-0.2,1.8-0.3,2.6-0.4l0,0
		c-0.7-0.3-1.5-0.7-2.4-1.2l-3.4-2l0.2-1.3l7.6,0.8l-0.2,1L42.8,73.8z"/>
	<rect x="43.1" y="65.4" transform="matrix(0.2883 -0.9575 0.9575 0.2883 -35.2522 90.9443)" class="st5" width="1" height="7.6"/>
	<path class="st5" d="M48.2,67.1l-6.9-3l0.4-1l4.5-0.7c1-0.2,2-0.3,2.8-0.3l0,0c-1-0.3-1.8-0.7-2.9-1.1l-2.9-1.3l0.4-0.9l6.9,3
		l-0.4,0.9l-4.5,0.7c-1,0.2-2,0.3-2.9,0.3l0,0c0.9,0.3,1.7,0.7,2.9,1.2l3,1.3L48.2,67.1z"/>
	<path class="st5" d="M51.2,54.5l-2.2-0.5c-0.5-0.1-0.9-0.3-1.4-0.4l0,0c0.3,0.3,0.6,0.7,0.9,1.1l1.4,1.8L51.2,54.5z M50.5,57l1.6,2
		l-0.6,0.9l-5-6.3l0.6-1l7.8,1.8l-0.6,0.9l-2.4-0.6L50.5,57z"/>
	<polygon class="st5" points="55.5,52.7 53.7,45.4 53.7,45.4 51.1,48.4 50.5,47.8 53.9,43.9 54.3,44.3 56.2,51.5 56.2,51.5 
		59.1,48.2 59.7,48.8 56,53.1 	"/>
	<rect x="58.6" y="40.3" transform="matrix(0.7289 -0.6846 0.6846 0.7289 -14.137 52.4388)" class="st5" width="1" height="7.6"/>
	<path class="st5" d="M62.4,41.2c1,1.3,2.5,1.9,3.8,1c1.3-0.9,1.2-2.6,0.2-4c-0.9-1.2-2.5-2-3.8-1C61.2,38.2,61.5,39.9,62.4,41.2
		 M67.2,37.6c1.5,2.1,1,4.2-0.6,5.3c-1.7,1.2-3.7,0.8-5.1-1.1c-1.4-1.9-1.1-4.1,0.6-5.3C63.8,35.3,65.9,35.8,67.2,37.6"/>
	<path class="st5" d="M71.5,39.5l-3.4-6.8l1-0.5l3.9,2.3c0.9,0.5,1.7,1.1,2.3,1.6l0,0c-0.5-0.9-1-1.7-1.5-2.7l-1.4-2.8l0.8-0.4
		l3.4,6.8l-0.9,0.4l-3.9-2.3c-0.9-0.5-1.7-1.1-2.4-1.6l0,0c0.5,0.8,0.9,1.6,1.4,2.8l1.4,2.9L71.5,39.5z"/>
	<polygon class="st5" points="82,31.4 79.1,32.3 80,34.9 83.2,33.9 83.4,34.6 79.3,36 76.9,28.8 80.9,27.5 81.2,28.3 78.2,29.2 
		78.9,31.5 81.7,30.6 	"/>
	<path class="st5" d="M90.1,32.6c0.3,0,0.6,0,1,0c2.1-0.2,3.2-1.5,3-3.5c-0.1-1.8-1.3-2.8-3.4-2.6c-0.5,0-0.9,0.1-1.2,0.2L90.1,32.6
		z M88.5,26c0.6-0.2,1.3-0.3,2.1-0.4c1.4-0.1,2.5,0.1,3.2,0.7c0.7,0.6,1.2,1.4,1.3,2.6c0.1,1.2-0.2,2.3-0.8,3
		c-0.7,0.8-1.8,1.3-3.3,1.4c-0.7,0.1-1.3,0.1-1.8,0.1L88.5,26z"/>
	<path class="st5" d="M99.4,25.2c-0.3,0.9-0.8,2.1-1.1,2.6l-0.6,0c0.3-0.7,0.6-1.8,0.8-2.6L99.4,25.2z"/>
	<path class="st5" d="M102.4,29.4c-0.2,1.6,0.4,3.2,2,3.4c1.6,0.2,2.7-1,2.9-2.7c0.2-1.5-0.3-3.2-2-3.4
		C103.7,26.4,102.6,27.8,102.4,29.4 M108.4,30.2c-0.4,2.6-2.2,3.7-4.2,3.4c-2-0.3-3.2-2.1-2.9-4.3c0.4-2.4,2.1-3.7,4.1-3.4
		C107.6,26.2,108.7,28,108.4,30.2"/>
	<path class="st5" d="M112.1,31.1l1,0.3c1,0.3,1.8,0,2.1-0.8c0.3-0.9-0.3-1.6-1.3-1.9c-0.5-0.1-0.8-0.2-1-0.2L112.1,31.1z
		 M112.2,27.5c0.5,0.1,1.2,0.2,1.9,0.4c1,0.3,1.6,0.7,2,1.3c0.3,0.4,0.3,1,0.1,1.6c-0.3,0.9-1.1,1.4-2,1.4l0,0
		c0.5,0.4,0.7,1,0.6,1.8c-0.1,1.1-0.1,1.8-0.1,2.2l-1-0.3c-0.1-0.3,0-0.9,0.1-1.9c0.1-1.1-0.2-1.6-1-1.9l-0.9-0.3l-1,3.1l-1-0.3
		L112.2,27.5z"/>
	<rect x="115" y="33.3" transform="matrix(0.4037 -0.9149 0.9149 0.4037 39.8826 128.812)" class="st5" width="7.6" height="1"/>
	<path class="st5" d="M125.5,41.4c-0.5-0.1-1.4-0.3-2.3-0.9c-1-0.6-1.7-1.3-2-2.3c-0.2-0.9-0.1-2,0.5-3c1.2-1.9,3.4-2.5,5.6-1.2
		c0.8,0.5,1.3,1,1.5,1.3l-0.6,0.6c-0.3-0.4-0.6-0.8-1.3-1.2c-1.6-1-3.3-0.6-4.2,1c-1,1.6-0.5,3.2,1,4.1c0.6,0.3,1,0.5,1.2,0.5
		l1.2-1.9l-1.3-0.8l0.4-0.7l2.2,1.3L125.5,41.4z"/>
	<rect x="126.3" y="40" transform="matrix(0.6107 -0.7919 0.7919 0.6107 18.5542 118.7846)" class="st5" width="7.6" height="1"/>
	<path class="st5" d="M130.4,45.6l5.3-5.4l0.8,0.8l-0.9,4.5c-0.2,1-0.4,1.9-0.7,2.7l0,0c0.6-0.8,1.3-1.5,2.1-2.3l2.2-2.3l0.7,0.7
		l-5.3,5.4l-0.7-0.7l0.9-4.5c0.2-1,0.4-2,0.7-2.8l0,0c-0.6,0.7-1.3,1.4-2.1,2.3l-2.3,2.3L130.4,45.6z"/>
	<polygon class="st5" points="141.6,52.8 139.8,50.4 137.6,52.1 139.7,54.8 139,55.3 136.4,51.8 142.4,47.2 144.9,50.5 144.3,51 
		142.4,48.5 140.5,50 142.3,52.3 	"/>
	<path class="st5" d="M146,59.5c0,0.2,0.1,0.5,0.3,0.8c0.5,1.1,1.4,1.5,2.3,1c0.9-0.4,1-1.3,0.5-2.3c-0.2-0.4-0.4-0.7-0.5-0.8
		L146,59.5z M148.8,57c0.3,0.4,0.6,0.9,1,1.7c0.4,0.9,0.6,1.6,0.4,2.2c-0.1,0.5-0.5,1-1.1,1.3c-0.6,0.3-1.2,0.4-1.7,0.2
		c-0.7-0.2-1.4-0.9-1.8-1.8c-0.1-0.3-0.2-0.5-0.3-0.7l-2.7,1.3l-0.4-0.9L148.8,57z"/>
	<path class="st5" d="M149.2,66.5l0.3,1c0.3,1,1.1,1.5,1.9,1.2c0.9-0.3,1.1-1.1,0.8-2.1c-0.2-0.5-0.3-0.8-0.4-0.9L149.2,66.5z
		 M152.2,64.4c0.2,0.5,0.5,1.1,0.7,1.8c0.3,1,0.4,1.7,0.1,2.3c-0.2,0.5-0.6,0.8-1.2,1c-0.9,0.3-1.8-0.1-2.3-0.8l0,0
		c0,0.6-0.4,1.1-1.1,1.5c-0.9,0.6-1.6,1-1.8,1.2l-0.3-1c0.2-0.2,0.7-0.6,1.6-1c0.9-0.5,1.2-1.1,0.9-1.9l-0.3-0.9l-3.1,1l-0.3-0.9
		L152.2,64.4z"/>
	<path class="st5" d="M151,73.7c-1.6,0.3-2.9,1.4-2.6,3c0.3,1.6,1.8,2.2,3.5,1.9c1.5-0.3,2.9-1.3,2.6-3
		C154.3,73.9,152.6,73.4,151,73.7 M152.2,79.6c-2.6,0.4-4.2-0.9-4.5-2.9c-0.3-2,0.9-3.7,3.2-4.1c2.4-0.4,4.2,0.8,4.5,2.9
		C155.7,77.6,154.4,79.2,152.2,79.6"/>
	<polygon class="st5" points="155.2,83.5 155.1,81.2 156,81.2 156.2,86.9 155.3,86.9 155.3,84.6 148.5,84.8 148.5,83.7 	"/>
	<polygon class="st5" points="151.6,93.3 151.9,90.3 149.2,90.1 148.9,93.4 148.1,93.3 148.5,89 156,89.7 155.6,93.9 154.8,93.8 
		155.1,90.6 152.7,90.4 152.5,93.4 	"/>
	<polygon class="st5" points="153.9,98.8 154.4,96.5 155.2,96.7 154,102.3 153.2,102.1 153.7,99.8 147.1,98.3 147.3,97.4 	"/>
	<polygon class="st5" points="151.7,106.6 152.5,104.4 153.3,104.7 151.3,110 150.5,109.7 151.3,107.5 145,105.2 145.4,104.2 	"/>
	<path class="st5" d="M144.8,113.2l2.3,0.3c0.5,0.1,1,0.2,1.4,0.3l0,0c-0.3-0.3-0.7-0.6-1-1l-1.6-1.7L144.8,113.2z M145.3,110.5
		l-1.7-1.8l0.5-0.9l5.5,5.8l-0.5,1.1l-7.9-1.1l0.5-1l2.5,0.4L145.3,110.5z"/>
	<path class="st5" d="M140.7,119.3c0.5,0.4,0.6,1.1,0.2,1.7c-0.4,0.5-1.1,0.6-1.7,0.2c-0.5-0.4-0.6-1.1-0.2-1.7
		C139.5,119,140.2,118.9,140.7,119.3"/>
	<polygon class="st7" points="100.6,52.8 97.1,50.2 93.5,52.7 95,48.7 91.5,46.1 95.8,46.2 97.3,42.2 98.5,46.2 102.9,46.3 
		99.3,48.7 	"/>
	<polygon class="st8" points="100.6,52.8 97.1,50.2 93.5,52.7 95,48.7 91.5,46.1 95.8,46.2 97.3,42.2 98.5,46.2 102.9,46.3 
		99.3,48.7 	"/>
	<polygon class="st7" points="119.6,58 116.2,55.4 112.6,57.9 114,53.8 110.5,51.3 114.9,51.3 116.3,47.3 117.6,51.4 121.9,51.5 
		118.4,53.9 	"/>
	<polygon class="st8" points="119.6,58 116.2,55.4 112.6,57.9 114,53.8 110.5,51.3 114.9,51.3 116.3,47.3 117.6,51.4 121.9,51.5 
		118.4,53.9 	"/>
	<polygon class="st7" points="133.9,71.2 130.4,68.6 126.9,71.1 128.3,67 124.8,64.5 129.2,64.6 130.6,60.5 131.9,64.6 136.2,64.7 
		132.6,67.1 	"/>
	<polygon class="st8" points="133.9,71.2 130.4,68.6 126.9,71.1 128.3,67 124.8,64.5 129.2,64.6 130.6,60.5 131.9,64.6 136.2,64.7 
		132.6,67.1 	"/>
	<polygon class="st7" points="139.6,90.9 136.1,88.4 132.5,90.8 133.9,86.8 130.4,84.2 134.8,84.3 136.2,80.3 137.5,84.3 
		141.8,84.4 138.3,86.9 	"/>
	<polygon class="st8" points="139.6,90.9 136.1,88.4 132.5,90.8 133.9,86.8 130.4,84.2 134.8,84.3 136.2,80.3 137.5,84.3 
		141.8,84.4 138.3,86.9 	"/>
	<polygon class="st7" points="133.1,109.1 129.7,106.5 126.1,108.9 127.5,104.9 124,102.4 128.4,102.4 129.8,98.4 131.1,102.5 
		135.4,102.5 131.9,105 	"/>
	<polygon class="st8" points="133.1,109.1 129.7,106.5 126.1,108.9 127.5,104.9 124,102.4 128.4,102.4 129.8,98.4 131.1,102.5 
		135.4,102.5 131.9,105 	"/>
	<polygon class="st7" points="120.4,122.4 116.9,119.9 113.4,122.3 114.8,118.3 111.3,115.7 115.7,115.8 117.1,111.8 118.3,115.8 
		122.7,115.9 119.1,118.4 	"/>
	<polygon class="st8" points="120.4,122.4 116.9,119.9 113.4,122.3 114.8,118.3 111.3,115.7 115.7,115.8 117.1,111.8 118.3,115.8 
		122.7,115.9 119.1,118.4 	"/>
	<polygon class="st7" points="100.5,129 97.1,126.5 93.5,128.9 94.9,124.9 91.4,122.3 95.8,122.4 97.2,118.4 98.5,122.4 
		102.8,122.5 99.3,125 	"/>
	<polygon class="st8" points="100.5,129 97.1,126.5 93.5,128.9 94.9,124.9 91.4,122.3 95.8,122.4 97.2,118.4 98.5,122.4 
		102.8,122.5 99.3,125 	"/>
	<polygon class="st7" points="80.9,122.3 77.4,119.7 73.8,122.2 75.2,118.1 71.8,115.6 76.1,115.6 77.5,111.6 78.8,115.7 
		83.2,115.8 79.6,118.2 	"/>
	<polygon class="st8" points="80.9,122.3 77.4,119.7 73.8,122.2 75.2,118.1 71.8,115.6 76.1,115.6 77.5,111.6 78.8,115.7 
		83.2,115.8 79.6,118.2 	"/>
	<polygon class="st7" points="68,109.2 64.5,106.7 61,109.1 62.4,105.1 58.9,102.5 63.2,102.6 64.7,98.6 65.9,102.6 70.3,102.7 
		66.7,105.2 	"/>
	<polygon class="st8" points="68,109.2 64.5,106.7 61,109.1 62.4,105.1 58.9,102.5 63.2,102.6 64.7,98.6 65.9,102.6 70.3,102.7 
		66.7,105.2 	"/>
	<polygon class="st7" points="61.6,90.9 58.1,88.3 54.5,90.8 55.9,86.7 52.5,84.2 56.8,84.3 58.2,80.2 59.5,84.3 63.9,84.4 
		60.3,86.8 	"/>
	<polygon class="st8" points="61.6,90.9 58.1,88.3 54.5,90.8 55.9,86.7 52.5,84.2 56.8,84.3 58.2,80.2 59.5,84.3 63.9,84.4 
		60.3,86.8 	"/>
	<polygon class="st7" points="67.3,71.2 63.9,68.6 60.3,71.1 61.7,67 58.2,64.5 62.6,64.5 64,60.5 65.3,64.6 69.6,64.7 66.1,67.1 	
		"/>
	<polygon class="st8" points="67.3,71.2 63.9,68.6 60.3,71.1 61.7,67 58.2,64.5 62.6,64.5 64,60.5 65.3,64.6 69.6,64.7 66.1,67.1 	
		"/>
	<polygon class="st7" points="81.5,58 78,55.4 74.5,57.9 75.9,53.9 72.4,51.3 76.8,51.4 78.2,47.3 79.4,51.4 83.8,51.5 80.2,53.9 	
		"/>
	<polygon class="st8" points="81.5,58 78,55.4 74.5,57.9 75.9,53.9 72.4,51.3 76.8,51.4 78.2,47.3 79.4,51.4 83.8,51.5 80.2,53.9 	
		"/>
	<g>
		<defs>
			<path id="SVGID_1_" d="M67.3,85.6c0,16.1,13.4,29.2,29.9,29.2S127,101.7,127,85.6c0-16.1-13.4-29.2-29.9-29.2
				S67.3,69.5,67.3,85.6"/>
		</defs>
		<clipPath id="SVGID_2_">
			<use xlink:href="#SVGID_1_"  style="overflow:visible;"/>
		</clipPath>
		<path class="st9" d="M73.9,95.1c5.2,0.4,11.4,2.2,17.1,4.8c6.1,2.8,8.6,6,12.7,10.6 M72.2,88.8c1.4,0,14.1,2.3,22,5.2
			c6.4,2.4,13.3,7.5,18.2,11.6 M72,82.9c1.4,0,17.2,3.1,25.2,5.9c7.9,2.7,16.5,6.9,21.3,10.4"/>
		<path class="st10" d="M73.7,102.4c1.4-2.3,6.4-1.8,11.1,1c4.8,2.8,7.5,6.9,6.1,9.1c-1.4,2.3-6.4,1.8-11.1-1
			C75,108.8,72.3,104.7,73.7,102.4"/>
		<path class="st11" d="M73.7,102.4c1.4-2.3,6.4-1.8,11.1,1c4.8,2.8,7.5,6.9,6.1,9.1c-1.4,2.3-6.4,1.8-11.1-1
			C75,108.8,72.3,104.7,73.7,102.4z"/>
		<path class="st9" d="M102.6,90.8c3.5,0,9.1-0.2,12.2-0.2c3.3,0,6.2,0.9,9.9,1.4 M96,88.4c2.9-0.5,10.3-2.1,13.4-2.3
			c3.2-0.2,9.2,0,12.7,0.5 M90.2,86.5c2.5-1.1,11.5-4,14.7-4.3c3.1-0.4,14.1-1.3,16.9-0.9"/>
	</g>
</g>
</svg>
