<?xml version="1.0" encoding="UTF-8"?> <svg xmlns="http://www.w3.org/2000/svg" xmlns:xlink="http://www.w3.org/1999/xlink" version="1.1" id="Livello_1" x="0px" y="0px" viewBox="0 0 528.9 167.8" style="enable-background:new 0 0 528.9 167.8;" xml:space="preserve"> <style type="text/css"> .st0{fill:#E30613;} .st1{fill:#878787;} .st2{fill:#1E1E1C;} </style> <g> <path class="st0" d="M73.5,34.9c0.7,1.1,0.7,1.1,1.5,0.2c1.4-1.5,2.8-2.9,4.2-4.4c0.3-0.4,0.6-0.7,0.8-1.2c0.2-0.7,1-1.1,1.8-1.4 c0.1,0.6-0.3,0.9-0.6,1.2c-1.5,1.7-3.1,3.2-4.6,5c-3.4,4-6.1,8.4-6.9,13.7c-0.2,1.2-0.4,2.4-0.3,3.7c0,0.3,0.1,0.7-0.3,1 c-0.4-0.1-0.4-0.4-0.4-0.6c-0.1-3.5,0.5-6.8,1.9-10c0.8-1.7,1.5-3.4,2.5-5c0.2-0.4,0.2-0.7,0-1C73.2,35.6,73.2,35.3,73.5,34.9z"></path> <path class="st0" d="M92.6,27c0.1,1.7,0.3,3.4,0.5,5.3c0.5-2.6,0.2-5.2,0.5-7.6c0.5-0.1,0.6,0.3,0.6,0.5c0.1,0.5,0.1,1,0.2,1.5 c0.1,1.8-0.2,3.7-0.3,5.5c-0.1,1.1-0.7,1.9-1.1,2.8c-0.1,0.3-0.4,0.2-0.5,0c-0.2-0.2-0.2-0.4-0.2-0.6c0.2-1.9,0.1-3.8-0.1-5.7 C92.1,28,92.1,27.5,92.6,27z"></path> <path class="st0" d="M90.4,37.5c0.1-3,0-5.9,0.5-9.2C91.6,30.2,91.2,36.3,90.4,37.5z"></path> <path class="st0" d="M83.9,44.7c-0.1-1.6,0.2-2.9,0.5-4.3c0-0.2,0.2-0.3,0.4-0.4c0.2,0,0.4,0.1,0.4,0.3 C85.2,41.9,85.6,43.4,83.9,44.7z"></path> <path class="st0" d="M85.5,42.5c0.3-1.9,0.4-3.5,0.9-5.1c0.4,0,0.5,0.1,0.5,0.3c0,1.3-0.4,2.6-0.3,3.9C86.6,42,86.1,42.2,85.5,42.5 z"></path> <path class="st0" d="M89.2,33.2c0.3,1.8,0.2,3.6,0.1,5.3c0,0.2-0.1,0.5-0.4,0.4c-0.2,0-0.3-0.2-0.3-0.4c0-0.1,0-0.2,0-0.3 C88.8,36.6,88.7,34.9,89.2,33.2z"></path> <path class="st0" d="M87.3,41.2c0.2-1.7,0.3-3.4,0.5-5.4C88.6,37.3,88.4,39.5,87.3,41.2z"></path> <path class="st0" d="M82.1,46.4c0.3-1.4,0.5-2.9,0.8-4.6C83.6,43.4,83.2,45.4,82.1,46.4z"></path> <path class="st0" d="M79.3,48.4c0.3,1,0,1.8-0.5,2.6c-0.1,0.2-0.3,0.4-0.6,0.2C78,51,78,50.8,78,50.6C78.1,49.7,78.7,49,79.3,48.4z "></path> <path class="st0" d="M81.6,44.6c0.2,1.5-0.2,2.8-1,4.1C80.5,47.2,81.2,45.9,81.6,44.6z"></path> <path class="st0" d="M142.5,70.6c-1.2,0.2-2.3,0.3-3.5,0.5c-5.2,0.8-10.3,2.4-15.1,4.5c-2.7,1.2-5.2,2.7-7.9,3.9 c-1.5,0.7-3,1.3-4.6,1.8c-0.3,0.1-0.7,0.2-1.1,0.3c-0.3,0-0.7,0-0.8-0.4c-0.1-0.5,0.4-0.4,0.7-0.5c3.1-1,6-2.3,8.9-3.7 c4-1.9,8-3.9,12.4-4.9c2.5-0.6,4.8-1.4,7.4-1.6C140,70.4,141.2,70.4,142.5,70.6z"></path> <path class="st0" d="M124.1,66.5c-1,0.2-1.8,0.3-2.5,0.9c-0.3,0.2-0.8,0.2-1.2,0.3c-0.5,0.1-1.1-0.1-1.3,0.7 c-0.1,0.3-0.5,0.3-0.8,0.4c-1.4,0.1-2.8,0.3-4.2,0.5c-0.2,0-0.4,0-0.5-0.2c-0.1-0.3,0.1-0.4,0.3-0.5c1.1-0.3,1.8-1.3,3-1.2 c0.1,0,0.2,0,0.3-0.1c1.2-1.1,1.2-1,2.3-1.2c1-0.1,2.1-0.2,3.1-0.1C123,66,123.5,65.9,124.1,66.5z"></path> <path class="st0" d="M134.3,64.9c-3-0.1-6,0.5-9,0C128.3,63.7,131.3,63.8,134.3,64.9z"></path> <path class="st0" d="M114.2,70.6c-1.2,0.4-2.2,0.4-3.6-0.3c2.5-1,4.8-1.2,7.1-1c-1.3,0.7-2.7,0.4-4.1,0.9 C113.7,70.5,114,70.3,114.2,70.6z"></path> <path class="st0" d="M113,71.9c-0.8,0.5-1.7,0.5-2.6,0.7c-0.6,0.1-1.2,0.2-1.7,0.3c-0.3,0-0.6,0.2-0.7-0.2 c-0.1-0.3,0.3-0.5,0.5-0.5c0.6-0.1,1.2-0.2,1.8-0.3c0.9-0.1,1.8-0.2,2.7-0.3C112.9,71.7,113,71.8,113,71.9z"></path> <path class="st0" d="M121.1,65.6c1.5-0.6,3-0.4,4.5,0.2C124.1,65.7,122.6,65.8,121.1,65.6z"></path> <path class="st0" d="M50,125.2c0,1.2,0,2.4,0,3.6c0,0.3,0.1,0.6-0.3,1.1c-0.4-0.8-0.2-1.6-0.3-2.6c-0.6,1.8-0.4,3.5-0.5,5.3 c-0.5-0.9-0.5-2.1-0.4-3.9C48.5,127.4,49.2,126.3,50,125.2z"></path> <path class="st0" d="M45,133.5c-0.1,3.1,0,6.2,0.2,9.6C44.2,141.3,44.1,136.1,45,133.5z"></path> <path class="st0" d="M46.2,130.6c-0.2,2.6-0.1,5,0,7.7C45.3,136.7,45.3,132.2,46.2,130.6z"></path> <path class="st0" d="M52,124.8c-0.1-0.8-0.1-1.6,0.1-2.4c0.2-0.7,0.8-1.3,0.7-2.2c0-0.2,0.2-0.3,0.4-0.3c0.3,0,0.3,0.3,0.3,0.5 c-0.1,0.5-0.1,1-0.4,1.5C52.6,122.8,52.3,123.8,52,124.8z"></path> <path class="st0" d="M47.4,128.2c0.3,1-0.1,1.9-0.1,2.7c0,0.9,0.3,1.7,0,2.6C46.6,132.4,46.6,129.8,47.4,128.2z"></path> <path class="st0" d="M51.5,122.9c-0.3,1.6-0.6,3.2-0.9,4.7c-0.5-1.7,0.3-3.2,0.6-4.8C51.2,122.9,51.4,122.9,51.5,122.9z"></path> <path class="st0" d="M101.8,115.3c0.6,0.5,1.4,0.7,2.1,0.9c0.6,0.1,1.2,0.2,1.1,1.1c0,0.4,0.4,0.3,0.6,0.5c0.5,0.3,1.2,0.3,1.6,0.9 c-0.2,0.4-0.5,0.3-0.7,0.2c-1.9-0.6-3.8-1.2-5.3-2.7c-0.4-0.4-0.9-0.6-1.3-1c-0.4-0.3-0.2-0.5,0.2-0.7 C100.6,114.7,101.2,115,101.8,115.3z"></path> <path class="st0" d="M101.8,115.3c-0.6-0.3-1.1-0.6-1.7-0.9c-0.5-0.8-1.4-1-1.9-1.7c-0.1-0.1-0.2-0.3,0-0.5c0.1-0.1,0.3-0.1,0.4,0 c1.6,1.3,3.6,2,5.4,3c0.1,0.1,0.2,0.2,0.1,0.5C103.2,115.9,102.5,115.3,101.8,115.3z"></path> <path class="st0" d="M104.1,118.7c0.7,0,3.8,1.6,4.5,2.3C107.4,121.2,105,120,104.1,118.7z"></path> <path class="st0" d="M117.3,129.1c-1.6-0.1-3-0.7-4.6-1.7C114.1,127.4,116.4,128.2,117.3,129.1z"></path> <path class="st0" d="M109.9,122.8c-1.4-0.1-3.2-1-4-1.9C106.6,120.8,108.5,121.7,109.9,122.8z"></path> <path class="st0" d="M111.1,124.9c0.8,0.9,2.1,1,3,1.7c0,0.3-0.2,0.3-0.4,0.3c-1.1-0.3-2.1-0.9-3.1-1.5c-0.4-0.2-0.3-0.5,0-0.8 C110.8,124.8,110.9,124.8,111.1,124.9z"></path> <path class="st0" d="M111.1,124.9c-0.2-0.1-0.3-0.1-0.5-0.2c-0.4-0.6-1.2-0.7-1.8-1.3c1.1,0,2.2,0.5,3,1.3 C111.6,125,111.3,124.9,111.1,124.9z"></path> <path class="st0" d="M29.5,78.5c-2.3-1.5-4.6-3-7.1-4.2c-2.5-1.2-5.2-1.8-7.8-2.9C20.4,72.1,25.4,74.4,29.5,78.5z"></path> <path class="st0" d="M22.6,69.4c2.1-0.7,3.8,0,5.9,1.1c-1.6,0.5-3.1,0-4.4,0.4c0.3-0.6,0.9-0.4,1.5-0.6 C24.5,70,23.6,69.4,22.6,69.4z"></path> <path class="st0" d="M18.2,67.9c1.7-0.2,3.4-0.6,5.3,0.6C21.5,68.5,19.8,68.6,18.2,67.9z"></path> <path class="st0" d="M32.2,73.4c-0.7,0-1.4,0.2-2-0.2c0.4-0.6,0.9,0,1.3-0.4c-1-0.6-2.3-0.3-3.5-0.9c1.4-0.4,2.5,0,3.6,0.3 C32,72.3,32.2,72.8,32.2,73.4z"></path> <path class="st0" d="M33.6,75.5c1.3,0,2.6,0,4,0C36.7,76.4,36.2,76.4,33.6,75.5z"></path> <path class="st0" d="M14,66.3c1.5-0.4,2.9-0.7,4.4-0.2C17,66.5,15.5,66.2,14,66.3z"></path> <path class="st0" d="M16,67.2c1.2-0.4,2.5-0.4,3.7-0.2C18.5,67.7,17.3,67.1,16,67.2z"></path> <path class="st0" d="M34.7,74.8c-0.8,0.4-1.6,0.4-2.6-0.3C33.2,74.2,34,74.5,34.7,74.8z"></path> <path class="st0" d="M63.4,82.6c-0.4,0-1-0.7-0.9-1c0.1-0.3,0.3-0.4,0.6-0.3c0.4,0.1,0.9,0.3,0.8,0.9 C63.9,82.5,63.7,82.6,63.4,82.6z"></path> <path class="st0" d="M68,85.4c0,0.3-0.3,0.4-0.6,0.4c-0.4,0-0.9-0.5-0.8-0.9c0-0.3,0.2-0.4,0.5-0.4C67.5,84.6,68,85,68,85.4z"></path> <path class="st0" d="M77.7,88.9c-0.7-0.9-1.6-1.3-2.4-2c-1.8-1.7-3.4-3.6-4.7-5.7c-1.2-1.9-2.7-3.3-4.6-4.5 c-2.7-1.7-5.2-3.8-7.6-5.9c-0.6-0.5-1.2-1.1-1.9-1.5c-1.3-0.9-2.1-2.2-2.9-3.4c-1.1-1.5-1.9-3.2-2.3-5.1c-0.1-0.4-0.3-0.9-0.5-1.3 c-0.5-1.1-0.4-2.3-0.2-3.5c0.1-0.4,0.3-0.6,0.7-0.6c0.7,0,1.2,0.3,1.6,0.9c1,1.2,1.6,2.6,2.3,3.9c0.8,1.7,1.7,3.5,2.8,5 c1.1,1.6,2.4,3,4,4.1c1.6,1,3,2.3,4.7,3.1c0.2,0.1,0.5,0.3,0.8,0.3c0.3-0.3,0.1-0.6,0-0.9c-0.7-2.3-1.7-4.5-2.9-6.7 c-1.4-2.6-2.9-5.2-4-8c-0.3-0.7-0.8-1.2-1.1-1.9c-1.1-3.4-1.6-6.9-1.1-10.6c0.5-3.9,1.9-7.6,3.4-11.3c1.7-4,4.4-7.1,7.5-10 c2-1.9,4.3-3.5,6.3-5.3c3.2-2.8,6-6.1,8.6-9.4C85.6,7.1,86.7,5.6,88,4c0.5-0.6,1-1.1,1.6-1.5c0.6-0.5,1.2-1,1.8-1.5 c1.2-1,3.3-1.4,5-0.3c1.3,0.9,2.5,2,3.4,3.4c0.8,1.3,0.8,2.7,0.6,4.1c-0.2,1.2-0.6,2.4-1.1,3.5c-1.5,3.2-1.7,6.5-0.9,9.9 c0.2,0.7,0.3,1.4,0.6,2.1c0.3,0.8,0.3,1.6,0.3,2.4c0.1,4.3-1.1,8.3-3,12.1c-0.9,1.8-2.2,3.3-3.6,4.7c-2.4,2.5-5,4.7-7.8,6.7 c-2,1.5-3.9,3.1-5.6,5c-1.4,1.6-1.5,3.3-0.9,5.1c0.5,1.5,1.2,2.9,2.1,4.1c1.3,1.8,2.3,3.7,3.4,5.6c0.7,1.3,1,2.7,1.2,4.3 c3.7-1.5,6.9-3.5,8.2-7.4c0.5-1.5,1.1-2.9,1.5-4.4c0.5-1.9,1.4-3.7,2.4-5.4c1.8-2.8,4.4-4,7.6-4.2c0.8-0.1,1.3,0.5,1.8,0.9 c0.3,0.3,0.1,0.6-0.1,0.9c-0.6,0.9-1.5,1.6-2.5,2.2c-2.3,1.3-3.9,3.3-5,5.7c-0.9,2-1.7,4.2-2.5,6.3c-1.2,3.3-2.6,6.5-5.4,9 c1.5-0.3,2.8-0.8,4-1.5c3-1.9,5.4-4.5,8-6.9c2.7-2.5,5.3-5.1,8.4-7.1c3.2-2,6.7-3.3,10.5-3.9c4.4-0.6,8.6,0,12.8,0.8 c4.2,0.9,8.5,1.6,12.8,1.4c2.2-0.1,4.4-0.3,6.6-0.3c2.4,0,4.6,0.5,6.8,1.4c1.2,0.5,2.5,1,3.6,1.6c1.5,0.9,2.6,2.1,3.8,3.3 c0.8,0.7,0.6,2.1,0.1,3.2c-1.1,2.4-3,3.8-5,5.4c-2.4,1.9-5.2,2.3-8,2.8c-2,0.4-4.1,0.5-6.2,0.6c-2.6,0.1-5.1,0.8-7.6,1.8 c-1.9,0.7-3.5,1.9-5.1,3.1c-3.7,2.7-7.3,5.4-11.4,7.5c-2.5,1.3-5.1,2.1-7.8,2.3c-1.7,0.2-3.3,0-4.9,0c-2.4,0-4.8-0.2-7.3,0.1 c-1,0.1-1.9,0.4-2.8,0.8c0,0.5,0.3,0.5,0.6,0.6c4.6,1.8,8.9,4.1,12.8,7.1c2.3,1.9,4.2,4.2,5.5,7c0.9,1.9,1.8,3.9,3,5.7 c0.8,1.3,2,2.3,3,3.4c2.2,2.3,4.8,4.1,7.4,5.9c3.1,2.2,6.2,4.5,8.3,7.9c1.4,2.4,1.7,4.8,0.8,7.4c-0.2,0.6-0.5,1.2-0.5,1.8 c0,0.2-0.1,0.5-0.3,0.6c-1.1,0.9-1.3,2.3-1.6,3.6c-0.3,1.4-1.2,2.4-2.3,3.3c-0.9-0.2-1.5,0.9-2.4,0.7c-1.1-0.1-2.2-0.4-3.1-1.1 c-1.9-1.4-3.5-3-4.8-5.1c-2.1-3.4-5-6-8.7-7.7c-3.7-1.7-7.5-3.5-11.2-5.2c-3.8-1.8-7.1-4.3-10-7.3c-2.6-2.8-4.7-6-6.7-9.2 c-0.8-1.2-1.2-2.6-1.7-3.9c-0.7-1.7-1.3-3.4-2-5.1c-0.4-0.9-1-1.7-1.6-2.6c-0.2-0.3-0.5-0.3-0.9-0.1c-0.9,0.4-1.7,0.9-2.6,1.2 c-0.2,0-0.4,0.1-0.5,0.3c-0.5,0.9-1.4,1.3-2.1,1.9c-2.5,2.3-3.7,5.3-4.2,8.6c-0.3,1.9-0.4,3.9-0.7,5.9c-0.2,1.6-0.7,3.2-1.3,4.7 c-0.9,2.1-2,4-3.3,5.8c-1.4,2-2.6,4.1-3.8,6.2c-1.1,2-2.4,3.9-3.6,5.8c-2.4,4.1-4.2,8.5-5.8,13c-1.2,3.7-2.6,7.4-5.7,10 c-1.1,0.9-2.3,1.4-3.6,2c-0.7,0.3-1.5,0.1-2.2,0c-0.4-0.1-0.7,0-1,0.1c-2.9,1.3-5.8,0-6.8-3c-0.6-1.7-0.4-3.4,0.1-5 c0.4-1.4,1.1-2.8,1.8-4.1c1.7-2.8,1.8-5.7,0.4-8.8c-1-2.2-1.6-4.5-1.4-7c0.3-4.1,1.4-7.9,3.2-11.6c1.6-3.3,3.8-6.2,6.5-8.8 c2.2-2.1,4.6-4.1,7-6c1.5-1.1,2.5-2.5,3.4-4.1c0.9-1.7,1.7-3.5,2.6-5.1c1-1.8,2.1-3.5,3.7-4.9c0.3-0.3,0.7-0.4,0.8-0.9 c-0.6-0.2-1.1,0.1-1.6,0.3c-1.7,0.6-3.3,1.3-5.2,1.3c-0.9,0-1.6,0.5-2.2,1.3c-1.4,1.8-2.7,3.7-4.3,5.4c-1.8,1.9-3.5,4-6,5.2 c-2.5,1.1-5,2.1-7.7,2.4c-1,0.1-1.9,0-2.8-0.4c-0.9-0.4-1.1-1.1-0.4-1.9c0.8-0.9,1.9-1.4,3-1.8c1.4-0.5,2.8-1,4.2-1.7 c3.8-1.8,7-4.3,9.4-7.8c-0.3-0.4-0.8-0.3-1.2-0.4c-1.8-0.2-3.5-0.7-5.2-1.4c-4.9-2-9.4-4.6-14-7.1c-2.6-1.4-5.3-2.3-8.2-2.6 c-4.1-0.3-8-1.5-11.7-3.3c-2.3-1.2-4.2-2.9-6.2-4.6c-1.5-1.4-3-2.8-4.3-4.4c-1.6-2.1-3-4.3-3.2-7c-0.1-1.7,0.4-3.2,1.8-4.4 c1-0.8,2.1-1.4,3.5-1.5c1-0.1,2-0.4,2.9-0.8c1.9-0.8,3.8-1.2,5.9-0.8c2.4,0.5,4.8,1,7.3,1.5c3.3,0.6,6.2,2.3,9,4.1 c2.7,1.8,5.6,3.3,8.2,5.2c1.6,1.2,3.3,2.3,4.8,3.6c1.2,1,2.5,2,4,2.7c2.9,1.5,5.9,3,9.1,3.8c1.5,0.4,3,0.6,4.4,0.7 c0.3-0.4-0.1-0.5-0.2-0.8c-1-1.5-1.9-3-2.5-4.7c-0.4-1.4,0.1-2.1,1.6-2.1c1.2,0,2.2,0.5,3.2,1.1c2.3,1.6,4.4,3.5,6.3,5.4 c1.9,1.9,3.7,3.8,6,5.1C76.2,88.3,77,88.6,77.7,88.9z M89.2,94.8c-0.7,0.2-1.2-0.7-1.9-0.5c0,0.4,0.3,0.5,0.5,0.6 c1.9,1.2,3.8,2.3,5.7,3.5c0.5,0.3,1,0.6,1,1.5c-1.7-1-3.2-1.9-4.8-2.8c-0.6-0.3-1.2-0.9-2-0.9c-0.3-0.6-0.9-0.7-1.4-0.7 c0.4,0.4,0.8,0.8,1.5,0.7c1,1.4,2.7,1.7,3.9,2.9c-0.4,0.3-0.6,0-0.9-0.1c-1.1-0.6-2.2-1.2-3.2-1.8c-0.3-0.2-0.7-0.5-1-0.2 c-0.4,0.4,0.2,0.6,0.4,0.9c0.1,0.1,0.1,0.2,0,0.2c-0.4,0-0.7-0.5-1.3-0.3c0.6,0.4,0.5,1.2,1,1.6c1.8,1.9,2.8,4.3,3.7,6.7 c1.1,3,2.5,5.9,4,8.7c1.9,3.4,4.4,6.4,7.3,9.1c1.3,1.2,2.6,2.4,4.3,3.2c1.7,0.8,3.2,1.9,5,2.6c1.7,0.7,3.4,1.7,5.1,2.4 c2.6,1,5,2.3,7.4,3.6c1.8,1,3.4,2.3,4.7,3.9c1.8,2.1,3.5,4.3,5.2,6.5c0.9,1.1,1.9,1.7,3.3,1.6c2.6-0.1,4.3-1,4.5-4.1 c0.1-1.7-0.2-3.3-1.5-4.6c-0.3-0.3-0.7-0.7-0.4-1.3c0.6,0.3,1,1,1.7,1.1c0.9-1.8,1.2-3.7,0.7-5.7c-0.3-1-1-1.7-1.5-2.6 c-1-1.6-2.2-3-3.6-4.3c-1-0.9-2.1-1.6-3.1-2.4c-1.7-1.3-3.3-2.7-4.8-4.2c-2.1-2.1-4.3-4-5.6-6.7c-0.8-1.5-1.5-3-2.3-4.5 c-0.6-1.2-1.4-2.4-2.4-3.3c-2.8-2.7-6.1-4.7-9.7-6.5c-5.6-2.7-11.4-4.8-17.5-6.1c-0.3-0.1-0.7-0.3-1.1,0c1.1,0.4,2.2,0.9,3.4,1.3 c-0.8,0.2-1.5,0.2-1.9,0c-0.6-0.4-0.8,0.5-1.4,0.2C89.4,93.9,88.9,94.1,89.2,94.8L89.2,94.8z M72.9,101.9c0.2-0.8,1.1-1.2,1.2-2 c-0.3-0.4-0.7-0.3-1.2-0.5c0.8-0.6,1.4-1.4,2.1-2.1c-0.4-0.3-0.7,0-1,0.2c-0.4,0.3-0.9,0.7-1.3,1c-0.1,0.1-0.2,0.1-0.3,0 c-0.1-0.4,0.4-0.5,0.4-0.8c-0.1-0.3-0.5,0.2-0.7-0.2c0.4-0.5,0.8-0.9,1.3-1.4c-0.6,0.2-1.3,0-1.9,0.3c-1.6,1.1-3.2,2.3-4.6,3.6 c-1.9,1.9-2.9,4.2-3.8,6.6c-0.9,2.3-2.2,4.4-4.1,5.9c-2.2,1.7-4.4,3.3-6.5,5.1c-2.4,1.9-4.6,4.1-6.3,6.7c-3,4.4-4.9,9.1-5.3,14.5 c-0.2,2.7,0.5,5,1.4,7.4c1.1,2.7,1.3,5.5-0.1,8.2c-0.6,1.3-1.4,2.5-1.9,3.8c-0.7,1.8-1,3.6-0.5,5.5c0.4,1.6,2.1,2.7,3.7,2.2 c1.7-0.6,3.3-1.4,4.2-3.1c0.4-0.7,0.9-1.4,1.3-2.1c0.1-0.2,0.2-0.5,0.7-0.3c-0.4,2-0.6,4.1-2.1,6c1.4,0,2.5-0.3,3.3-1 c1.6-1.2,3-2.5,4-4.3c1.3-2.3,2.3-4.7,3-7.2c1.2-3.9,2.9-7.6,4.9-11.2c0.9-1.6,1.7-3.3,2.5-4.9c0.3-0.6,0.5-1.3,0.9-1.8 c0.6-0.9,0.8-2,1.5-2.7c0.7-0.7,1.2-1.5,1.7-2.3c1.7-3,2.8-6.4,3.8-9.7c0.9-3,1.3-6.1,2-9.1c0.6-2.7,1.2-5.4,2.9-7.6 c0.5-0.7,0.9-1.3,1.6-1.8c0.8-0.6,1.4-1.3,2.2-2c-1.1-0.2-1.6,0.7-2.5,0.9c-0.2-0.8,1-0.9,0.7-1.9c-2.7,2-5,4.5-7.7,6.5 c0.1-0.3,0.1-0.5,0.2-0.6c0.3-0.3,0.5-0.6,0.8-0.9c0.3-0.3,0.5-0.6,0.8-0.9c0.3-0.3,0.6-0.6,0.9-0.8c0.5-0.4-0.6-0.5-0.1-0.9 c0.7-0.5,1.1-1.4,2-1.6c-0.3,0.2-0.6,0.4-0.5,0.8c0.6,0,0.5-0.5,0.5-0.8c0.1-0.5,0.8-0.6,0.7-1.4c-2,1.4-3.6,3.1-5.4,4.7 c-1.7,1.6-3.2,3.4-4.7,5.2c1.1-1.8,2.3-3.4,3.6-4.9C71.8,103.4,72.5,102.9,72.9,101.9c-0.1,0.1-0.1,0.2,0,0.3c0,0,0.1,0.1,0.1,0 c1-0.8,2-1.7,2.8-2.7c0,0-0.1-0.1-0.2-0.3C74.7,100.2,73.7,100.9,72.9,101.9z M96.2,83.4L96.2,83.4c0.1,0.5-0.3,0.5-0.6,0.6 c-0.5,0.2-1.1,0.3-1.6,0.8c1.6-0.4,3.1-0.8,4.7-1.1c-1,0.9-2.3,0.9-3.4,1.5c2.3-0.2,4.5-1.1,6.7-1.7c0,0.3-0.2,0.3-0.3,0.4 c-2,0.9-4,1.6-6.1,2.1c-0.5,0.1-1.1,0.2-1.4,0.7c-0.3,0-0.7,0-1.1-0.1c0.5,0.2,0.8,0,1.1,0.1c0.7-0.1,1.3-0.6,2.1-0.3 c0.1,0.3-0.3,0.6-0.2,0.9c-0.4-0.2-0.8-0.3-1.2,0c0.4,0,0.8,0,1.2,0c0.2,0,0-0.2,0.1-0.1c0.1,0.1,0.5-0.1,0.2,0.1 c-0.4,0.3-1.3,0.5-1.3,0.6c0.1,0.9-0.7,0.7-1.1,1c-0.3,0.2-0.7,0-1,0.3c0.4,0.1,0.9-0.1,1.3,0.3c-0.4,0.6-1.1,0.8-1.6,1.2 c0.7,0.1,1.3,0.1,1.9,0.1c0.2,0,0.5-0.1,0.6,0.2c0.1,0.6,0.5,0.3,0.8,0.2c2.4-0.6,4.9-0.9,7.3-0.8c2.6,0.1,5.1,0.3,7.7,0.5 c3.6,0.2,7.2,0.2,10.8-0.8c2.4-0.6,4.7-1.2,6.8-2.5c2.9-1.9,5.8-3.8,8.6-5.9c1.4-1.1,2.9-2,4.6-2.6c2.5-0.9,5-1.4,7.7-1.5 c3.3-0.1,6.5-0.8,9.6-1.7c2.1-0.6,3.7-1.9,5.2-3.4c0.2-0.2,0.5-0.5,0.5-1c-0.9,0.1-1.7,0.5-2.4,0.8c-0.7,0.3-1.4,0.4-2.2,0.1 c0.2-0.4,0.5-0.4,0.8-0.5c1.4-0.5,2.7-1.2,3.8-2.1c1.7-1.4,1.7-4,0-5.3c-0.5-0.4-1-0.6-1.5-0.9c-1.4-0.7-2.6-1.5-4.1-1.9 c-2.7-0.8-5.4-1.4-8.2-1c-2.5,0.3-5,0.2-7.5,0.1c-2,0-3.8-0.3-5.7-0.7c-4-0.8-7.9-1.7-12.1-1.6c-3.2,0.1-6.3,0.6-9.2,2.1 c-3.6,1.8-6.6,4.3-9.4,7.1c-1.4,1.4-2.7,3-4.1,4.4c-1.2,1.3-2.5,2.5-3.9,3.7c-2.5,2.3-5.2,4.2-8.7,4.5c-0.6,0-1.3,0.2-1.9,0.3 c-0.3,0-0.5,0.1-0.6,0.6c1.4,0.1,2.7-0.4,4.1-0.4c0.2,0.8-0.2,1.2-1,1.3c-0.7,0.1-1.4,0.3-2.1,0.5c-0.2,0.1-0.5,0-0.6,0.5 c1.4,0.1,2.7-0.8,4.4-0.3c-1,0.4-1.9,0.4-2.7,0.9c0.4,0,0.8,0,0.8,0.1c0.3,0.9,0.9,0.5,1.4,0.4C93.7,84,94.9,83.7,96.2,83.4z M74,73L74,73c0.2,1.3,1.3,2,1.8,3c0.3-0.3,0.2-0.5,0.1-0.7c-0.9-3-1.8-5.9-2.7-8.9c-0.1-0.4-0.2-0.9-0.6-1.2l0,0 c0.7-0.3,0.8,0.3,0.9,0.7c0.6,1.7,1.3,3.3,2.3,4.8c0.4,0.5,0.6,1.2,0.9,1.8c0.6,1.1,0.7,2.5,1.5,3.5c0.7-0.5,0.2-1.1,0.1-1.6 c-0.1-0.3-0.5-0.6-0.2-0.9c0.5-0.4,0.3-0.7,0.1-1c-0.1-0.3-0.2-0.5,0-0.9c0.3,0.6,0.6,1.1,0.9,1.7c0,0,0.1-0.1,0.1-0.1 c-0.2-0.6-0.3-1.2-0.5-1.8c0.5,0.2,0.4,1,1,0.8c0.5-0.1,0.5,0,0.6,0.4c0.1,0.8,0.5,1.6,0.9,2.2c-0.2-1.4-0.4-2.6-0.6-3.9 c0.5,0.4,0.4,1,0.9,1.3c0.3-0.7-0.2-1.3-0.1-1.9c0.3-1.7-0.4-3-1.2-4.4C79,64,78,61.8,77.1,59.5c-0.7-1.9-0.1-3.3,0.9-4.7 c0.1-0.2,0.5-0.3,0.5-0.6c0-0.7,0.6-1.1,1-1.3c0.8-0.3,1.4-0.9,2-1.4c1.6-1.3,3.1-2.7,4.9-3.8c0.5-0.3,1-0.8,1.5-1.2 c1.9-1.7,3.6-3.5,5.3-5.4c2.5-2.8,3.9-6.1,4.7-9.6c0.7-3,0.2-5.9-0.4-8.8c-0.3-1.4-0.7-2.9-0.6-4.3c0.2-2.8,0.8-5.6,1.8-8.3 c0.4-1.1,0.6-2.2,0.4-3.4c-0.2-1-0.6-2-1.5-2.5c-1.1-0.6-2.3-0.9-3.6-0.7c-1.5,0.2-2.7,0.9-4,1.6c-2.5,1.3-4.3,3.2-5.7,5.6 c-0.5,0.9-1.2,1.7-1.9,2.5c-3.1,3.4-6.9,6.2-10.5,9.1c-2.1,1.7-4.1,3.5-5.7,5.7c-3.1,4.4-5.4,9.1-6.6,14.3 c-0.8,3.3-0.9,6.6,0.2,9.9c0.6,1.7,1.1,3.4,1.8,5.1c0.8,2,1.7,4,3.2,5.6c1.2,1.3,2.1,2.8,2.8,4.4c0.7,1.6,1.4,3.3,1.5,5.1 c0,0.9,0.3,1.4,1,1.8c0.3,0.2,0.7,0.5,1,0.7c0.4,0.3,0.8,0.5,1.4,0.3c0-0.5-0.1-0.9-0.3-1.3c-0.1-0.4,0.1-0.6,0.3-0.8l0,0 c0.5,0.2,0.6,1,1.3,0.7c-0.4-1.2-0.9-2.3-1.3-3.4C73.2,71.2,73.3,72.3,74,73z M64.8,86.7c-1.3-1.1-2.7-1.8-4.3-2.1 c-1.4-0.3-2.9-0.4-4.3-0.8c-1.9-0.6-3.8-1.3-5.6-2.2c-3-1.5-5.9-3-8.4-5.1c-1.2-1-2.5-2-3.8-2.9c-2-1.4-4.1-2.6-6.2-3.9 c-2.9-1.8-6-3.2-9.1-4.5c-3-1.4-6.3-1.8-9.6-2.4c-1.6-0.3-3.3-0.1-4.7,1c-0.8,0.6-1.6,1.1-2.6,1.3c-2.5,0.7-3.5,1.9-3.4,4.6 c0.2,3.2,1.4,5.9,3.5,8.2c3.6,4,8.2,6.6,13.2,8.5c2.4,0.9,5,1.5,7.6,2c3,0.5,5.8,1.7,8.5,3.1c2.9,1.5,5.6,3.5,8.7,4.8 c3,1.3,6,2.8,9.3,3.3c0.8,0.1,1.4,0,1.9-0.6c0.5-0.7,1.3-1.2,1.8-1.9c0.5-0.7,0.8-1.5,1.7-1.7c0.1,0,0.1-0.2,0.1-0.3 c-0.6-0.5-1.5,0-2.2-0.5c0.7-0.3,1.3-0.2,1.9-0.2c0.6,0,1.2,0.3,1.8-0.4c-0.9-0.3-1.9,0.1-2.8-0.3c0.5-0.3,0.9-0.2,1.3-0.5 c-1.1-0.5-2.4-0.2-3.4-0.9c0.5-0.1,0.9-0.1,1.4-0.2c-1.1-0.6-2.1-1.1-3.2-1.4c1.8-1,3.7-0.6,5.6-0.8c-1.6-0.3-3.1-1.1-4.7-1.1 c0.9-0.2,1.8-0.1,2.7-0.3c0.5-0.1,1.1,0.1,1-0.8c-0.1-0.3,0.2-0.3,0.4-0.3c0.5,0,1.1-0.2,1.6,0.1c1.3,0.7,2.8,0.6,4.2,0.8 c0.6,0.1,1.3,0.2,2.2-0.1c-0.9-0.4-1.6-0.5-2.3-0.7C64.4,86.9,64.7,87,64.8,86.7z M79.3,91.1c-1.2-0.3-2.3-0.1-3.3-0.5 c-0.9-0.4-2.1,0.8-2.9-0.5c0,0-0.1,0-0.1,0c-0.6,0.4-1.3,0.1-2,0.2c-1.8,0.3-3.5,1-5.1,1.8c-1,0.4-1.9,1-2.8,1.6 c-0.3,0.2-0.6,0.4-1,0.2c-0.4-0.2-0.9,0-0.7,0.4c0.3,0.6,0.2,0.8-0.4,0.6c-0.5-0.2-0.8,0.1-1.1,0.4c-1.7,1.6-3.4,3.2-4.9,5 c-2.3,2.8-4.5,5.5-7.7,7.4c-2.2,1.3-4.5,2.4-7,3c-1.1,0.3-1.9,0.8-2.6,1.8c0.2,0.1,0.3,0.2,0.4,0.3c1.1,0.6,2.3,0.3,3.5,0.1 c2.3-0.3,4.3-1.4,6.4-2.5c1.3-0.7,2.4-1.8,3.6-2.7c2.3-2,4.3-4.3,6.1-6.9c1.6-2.3,3.8-4.2,6.1-5.7c2.2-1.4,4.6-2.4,7.2-2.9 c1.6-0.3,3.2-0.6,4.9-0.1c0.4,0.1,0.9,0.2,1.1,0.8c0.2,0.6,0.6,0.4,0.9,0.1C78.4,92.5,78.8,91.8,79.3,91.1z M87.4,77.9 c0.7-0.2,0.7-0.2,0.7-0.7c0-0.1,0-0.6,0.3-0.2c0.2,0.2,0.3,0.2,0.5,0.2c0.8,0.2,0.9-0.7,1.4-0.9c1.7-0.7,2.6-2.2,3.5-3.7 c0.8-1.2,1.3-2.5,1.8-3.9c0.9-2.5,1.9-5,3-7.4c1.1-2.3,2.7-4.2,4.9-5.5c0.7-0.4,1.4-0.9,1.9-1.5c0.4-0.4,0.3-0.7-0.3-0.8 c-0.7-0.1-1.5-0.2-2.2,0.1c-2.2,0.9-4.2,2.1-5.5,4.2c-1.1,1.8-1.7,3.7-2.2,5.7c-0.5,1.9-1.3,3.6-2.3,5.3c-0.7,1.2-1.5,2.2-2.5,3.1 c-1.5,1.3-3.1,2.3-4.7,3.3c-1.2,0.7-2.3,1.6-3.2,2.6c-1,1.2-1.8,2.6-2.5,4c-0.3,0.7-0.6,1.4-0.8,2.2c-0.1,0.3-0.1,0.7,0.5,0.6 c0.7-0.2,0.8-0.1,0.5,0.6c-0.1,0.2-0.3,0.4-0.1,0.7c0.6-0.3,1.1-0.3,0.8-1.3c-0.5-1.3,0.2-2.3,1.1-3.1c0.4-0.4,0.9-0.7,1-1.3 c0-0.2,0-0.4,0.2-0.4c0.9-0.2,1.1-0.9,1.5-1.6c0.3-0.6,1.2,0.3,1.4-0.5c0-0.1,0.2,0,0.2,0.1c0,0.1,0,0.3,0,0.4 c0.5-0.2,0.5-0.8,0.9-0.9C87.6,77.5,87.3,77.7,87.4,77.9z M74.5,82c0.1-0.4,0.6-0.2,0.5-0.3c-0.5-0.6-0.3-1.6-1.1-1.9 c-0.4-0.2-0.5-0.4-0.8-0.8c-0.3-0.4-0.5-0.9-0.9-1.2c-1.3-1.1-2.3-2.5-3.8-3.2c-0.1-0.1-0.3-0.1-0.3-0.2c-0.6-0.8-1.5-1.2-2.3-1.7 c-1.7-1-3.3-1.9-4.9-3.1c-2.4-1.9-3.8-4.4-5.3-6.9c-0.9-1.5-1.5-3.2-2.2-4.9c-0.3-0.6-0.6-1-1.1-1.3c-0.4-0.2-0.7-0.1-0.7,0.3 c0,0.9-0.1,1.8,0.3,2.6c1.7,3.3,3.3,6.6,5.9,9.4c2.4,2.6,5,5,8,6.9c1.8,1.1,3.4,2.3,4.6,4c0.7,0.9,1.3,1.9,1.9,2.8 c1.6,2.6,3.8,4.6,6.4,6.1c0.4,0.3,0.9,0.6,1.5,0.6c0-0.1,0-0.2,0-0.2c-0.2-0.5-0.7-0.5-1.1-0.7c-0.6-0.3,0.2-1-0.4-1.3 c-0.5-0.2-0.7-0.6-0.6-1.1c0.1-0.3-0.2-0.5-0.3-0.7C76.6,84.2,75.9,82.7,74.5,82z M76,89.3c-1.9-1.2-3.6-2.6-5.3-4.1 c-2.3-2.2-4.5-4.5-7.1-6.4c-0.9-0.6-1.7-1.3-3-1.1c-1.1,0.2-1.3,0.4-0.9,1.4c0.9,2.4,2.3,4.4,4.3,6C67.5,87.8,71.6,89,76,89.3z M68.5,95c-0.3-0.1-0.5-0.1-0.6-0.1c-0.6-0.5-0.9-0.7-1.4-0.3c-0.8,0.7-1.7,1-2.6,1.4c-1,0.5-1.8,1.2-2.5,2.3 c1.8-0.5,3.5-1,5.5-1.6c-1.1-0.4-2,0.1-2.9,0C65.3,95.5,66.9,95.6,68.5,95z M93.3,84.8c-0.9,0-1.8,0.2-2.8,0.6 C91.6,85.5,92.4,85.1,93.3,84.8z M67.2,88.8c0.6,0.2,1.3,0.2,2,0.1C68.5,89,67.8,88.5,67.2,88.8z M79.7,74.3 c0.1,0.5,0.2,0.9,0.4,1.6C80.2,74.4,80.2,74.4,79.7,74.3z M83.4,87.2c-0.8,0.1-1,0.2-1,0.6c0,0.1,0.1,0.2,0.1,0.2 c0.5,0.1,0.6-0.3,0.8-0.5C83.4,87.4,83.4,87.3,83.4,87.2z M87.4,87c0.5,0.2,1,0,1.5-0.3C88.3,86.6,87.9,86.7,87.4,87z M78.8,98.7 c0.8-0.5,0.8-0.5,1.1-1C79.5,97.8,79.2,98.1,78.8,98.7z M67.8,89.5c-0.5,0-0.9,0-1.3,0C66.9,89.6,67.2,89.7,67.8,89.5z M67.9,96.3 c0.4-0.1,0.7,0,0.8-0.3C68.5,96,68.2,95.9,67.9,96.3z M79.6,79.4c-0.1,0.4-0.1,0.7,0.1,1.1C79.8,80.1,79.9,79.8,79.6,79.4z M60.4,92.8c-0.2-0.2-0.4-0.2-0.7,0C60,93.1,60.2,93,60.4,92.8z M88.2,85.9c-0.1,0-0.1-0.1-0.2-0.1c-0.1,0-0.2,0-0.2,0.1 c0.1,0,0.1,0.1,0.2,0.1C88.1,86,88.2,85.9,88.2,85.9z M76.1,72.5c-0.1-0.1-0.1-0.2-0.2-0.2c-0.2-0.1-0.2,0.1-0.2,0.2 c0,0.1,0.1,0.1,0.2,0.1C76.1,72.7,76.1,72.6,76.1,72.5z"></path> </g> <g> <g> <path class="st1" d="M188.1,106.8c0-0.2,0-0.3,0.1-0.4c0.1-0.1,0.2-0.1,0.4-0.1h0.7c0.2,0,0.3,0,0.4,0.1c0.1,0.1,0.1,0.2,0.1,0.4 v20c0,0.3-0.2,0.5-0.5,0.5h-0.7c-0.3,0-0.5-0.2-0.5-0.5V106.8z"></path> <path class="st1" d="M208.6,106.3c0.2,0,0.3,0,0.4,0.1c0.1,0.1,0.2,0.2,0.2,0.4v0.6c0,0.2,0,0.3-0.1,0.4c-0.1,0.1-0.2,0.2-0.4,0.2 H202v18.9c0,0.3-0.2,0.5-0.5,0.5h-0.6c-0.3,0-0.5-0.2-0.5-0.5V108h-6.6c-0.3,0-0.5-0.2-0.5-0.6v-0.6c0-0.2,0-0.3,0.1-0.4 c0.1-0.1,0.2-0.1,0.4-0.1H208.6z"></path> <path class="st1" d="M211,126.9c0.1-0.2,0.1-0.4,0.2-0.6c0.1-0.2,0.1-0.4,0.2-0.5l8-19.1c0-0.1,0.1-0.2,0.2-0.3 c0.1-0.1,0.2-0.1,0.3-0.1h0.1h0.5h0.1c0.2,0,0.3,0,0.3,0.1c0.1,0.1,0.1,0.2,0.2,0.3l8.3,20c0,0,0,0.1,0,0.1c0,0.1,0,0.1,0,0.1 c0,0.2-0.2,0.4-0.5,0.4h-0.8c0,0,0,0-0.1,0c0,0,0,0-0.1,0c-0.2,0-0.4-0.1-0.5-0.4l-2-4.8h-10.7c-0.4,0.9-0.7,1.8-1.1,2.6 c-0.3,0.8-0.6,1.6-0.9,2.3c-0.1,0.2-0.3,0.4-0.5,0.4c-0.1,0-0.1,0-0.1,0h-0.8c-0.3,0-0.5-0.2-0.5-0.4C211,127,211,127,211,126.9 C211,126.9,211,126.9,211,126.9z M215.6,120.4h9.3l-4.6-11.3L215.6,120.4z"></path> <path class="st1" d="M245.5,125.6c0.2,0,0.3,0,0.4,0.1c0.1,0.1,0.1,0.2,0.1,0.4v0.7c0,0.2,0,0.3-0.1,0.4c-0.1,0.1-0.2,0.1-0.4,0.1 h-12.3c-0.3,0-0.5-0.2-0.5-0.5v-20c0-0.2,0-0.3,0.1-0.4c0.1-0.1,0.2-0.1,0.4-0.1h0.7c0.2,0,0.3,0,0.4,0.1c0.1,0.1,0.1,0.2,0.1,0.4 v18.8H245.5z"></path> <path class="st1" d="M247.7,107.1c-0.1-0.1-0.1-0.3-0.1-0.4c0-0.3,0.2-0.4,0.5-0.4h0.5c0.1,0,0.2,0,0.3,0c0.1,0,0.1,0,0.2,0.1 c0.1,0,0.1,0.1,0.2,0.2c0.1,0.1,0.1,0.2,0.2,0.4l5.7,9.5l5.9-9.7c0.2-0.3,0.4-0.5,0.7-0.5h0.7c0.3,0,0.4,0.1,0.4,0.3 c0,0,0,0.1,0,0.2c0,0.1-0.1,0.1-0.1,0.2l-6.7,11.1v8.6c0,0.4-0.2,0.7-0.7,0.7H255c-0.4,0-0.6-0.2-0.6-0.7v-8.5L247.7,107.1z"></path> </g> <g> <path class="st2" d="M234.4,70.3c0.7,7.1,1.4,14.3,2,21.5v0.1c0,0.7-0.4,1.1-1.1,1.1H234c-0.7,0-1.1-0.4-1.2-1.1l-3.4-37.5 L213.9,89c-0.1,0.2-0.3,0.4-0.6,0.6c-0.3,0.2-0.5,0.2-0.7,0.2h-0.8c-0.3,0-0.5,0-0.7-0.1c-0.2-0.1-0.3-0.3-0.6-0.7 c-2.6-5.8-5.2-11.5-7.8-17.3c-2.6-5.7-5.2-11.5-7.8-17.3l-3.4,37.5c0,0.8-0.4,1.2-1.1,1.2h-1.3c-0.4,0-0.6-0.1-0.8-0.4 c-0.2-0.2-0.3-0.5-0.3-0.9l4-43c0-0.4,0.2-0.7,0.5-0.9c0.3-0.2,0.5-0.3,0.8-0.3h0.1h1.9c0.3,0.1,0.6,0.3,0.8,0.8l16,35.8l16-35.7 c0.1-0.3,0.3-0.5,0.5-0.6c0.2-0.1,0.5-0.2,0.7-0.2c0.3,0,0.6,0,0.9,0c0.3,0,0.6,0,0.8,0c0.4,0,0.7,0.1,0.9,0.3 c0.2,0.2,0.3,0.4,0.4,0.7v0.2C233,56,233.7,63.2,234.4,70.3z"></path> <path class="st2" d="M279.4,86.9l-0.1-2.3c-0.8,1.4-1.8,2.7-2.9,3.8c-1.2,1.1-2.4,2.1-3.8,2.9c-1.4,0.8-2.9,1.4-4.5,1.8 c-1.6,0.4-3.2,0.6-5,0.6c-1.8,0-3.6-0.2-5.3-0.7c-1.7-0.5-3.3-1.2-4.8-2c-1.5-0.9-2.8-1.9-4.1-3.2c-1.2-1.2-2.3-2.6-3.2-4.1 c-0.9-1.5-1.6-3.1-2-4.8c-0.5-1.7-0.7-3.5-0.7-5.3c0-1.8,0.2-3.6,0.7-5.3c0.5-1.7,1.2-3.3,2-4.8c0.9-1.5,1.9-2.8,3.2-4.1 c1.2-1.2,2.6-2.3,4.1-3.2c1.5-0.9,3.1-1.6,4.8-2c1.7-0.5,3.5-0.7,5.3-0.7c1.7,0,3.3,0.2,4.9,0.6c1.6,0.4,3.1,1,4.5,1.8 c1.4,0.8,2.7,1.8,3.9,2.9c1.2,1.1,2.2,2.4,3,3.8v-2.3v-5.3c0-0.7,0.3-1,0.9-1h1.6c0.7,0,1,0.3,1,1V92c0,0.3-0.1,0.6-0.3,0.7 c-0.2,0.2-0.5,0.2-0.8,0.2h-1.3c-0.8,0-1.2-0.4-1.2-1.1V86.9z M279.6,73.7c0-2.2-0.4-4.3-1.3-6.3c-0.9-2-2.1-3.8-3.6-5.3 c-1.5-1.5-3.3-2.7-5.3-3.6c-2-0.9-4.1-1.4-6.3-1.4H263c-2.2,0-4.3,0.4-6.2,1.3c-2,0.9-3.7,2.1-5.2,3.6c-1.5,1.5-2.7,3.3-3.5,5.3 c-0.9,2-1.3,4.1-1.3,6.3c0,2.2,0.4,4.3,1.3,6.4c0.8,2,2,3.8,3.5,5.3c1.5,1.5,3.2,2.8,5.2,3.7c2,0.9,4.1,1.4,6.3,1.4 c2.3,0,4.4-0.4,6.4-1.3c2-0.9,3.8-2.1,5.3-3.6c1.5-1.5,2.7-3.3,3.6-5.3C279.2,78.1,279.6,76,279.6,73.7z"></path> <path class="st2" d="M300.5,69.1c1.6-1.6,3.3-3.3,5-4.9c1.7-1.7,3.3-3.3,5-4.9c1.6-1.6,3.2-3.1,4.6-4.5c0.1-0.1,0.2-0.2,0.3-0.3 c0.1-0.1,0.3-0.1,0.4-0.1h2.8c0.2,0,0.4,0.1,0.5,0.2c0.1,0.1,0.2,0.3,0.2,0.4c0,0.2-0.1,0.5-0.2,0.7c-2.4,2.3-4.7,4.6-7.1,6.9 c-2.4,2.3-4.7,4.6-7.1,7l19.2,22c0.2,0.3,0.3,0.5,0.3,0.7s-0.1,0.4-0.3,0.4c-0.2,0.1-0.4,0.2-0.7,0.2c-0.3,0-0.6,0-0.9,0 c-0.3,0-0.6,0-0.8,0c-0.3,0-0.6,0-0.9-0.1c-0.3-0.1-0.5-0.2-0.6-0.5l-1.5-1.7L302.4,72l-6.5,6.2V92c0,0.7-0.3,1-1,1h-1.6 c-0.6,0-0.9-0.3-0.9-1V43.6c0-0.6,0.3-0.9,0.9-0.9h1.6c0.3,0,0.5,0.1,0.7,0.3c0.2,0.2,0.3,0.4,0.3,0.7v30 C297.3,72.2,298.9,70.7,300.5,69.1z"></path> <path class="st2" d="M332.9,75c0.1,0.3,0.1,0.8,0.1,1.4c0,0.6,0.1,1.1,0.3,1.6c0.5,1.8,1.3,3.5,2.2,5c1,1.5,2.2,2.8,3.5,3.9 c1.4,1.1,2.9,1.9,4.6,2.5c1.7,0.6,3.5,0.9,5.3,0.9c1.1,0,2.1-0.1,3-0.2c0.9-0.2,1.8-0.4,2.6-0.7c0.8-0.3,1.6-0.6,2.3-1.1 c0.7-0.4,1.4-0.9,2.1-1.3c0.2-0.1,0.4-0.3,0.6-0.4c0.2-0.2,0.4-0.3,0.6-0.5c0.2-0.2,0.4-0.3,0.6-0.4c0.2-0.1,0.3-0.2,0.5-0.2 c0.2,0,0.3,0.1,0.5,0.4c0.3,0.5,0.6,0.9,0.7,1.1c0.2,0.3,0.2,0.5,0.2,0.6c0,0.1,0,0.2-0.1,0.2c0.1,0.1,0.2,0.2,0.2,0.3 c-0.2,0.3-0.5,0.6-0.8,0.9s-0.7,0.6-1.2,0.9c-1.7,1.2-3.4,2.1-5.3,2.8c-1.9,0.7-4,1-6.3,1c-2.8,0-5.3-0.5-7.8-1.6 c-2.4-1-4.6-2.5-6.4-4.3c-1.8-1.8-3.3-3.9-4.3-6.4c-1.1-2.4-1.6-5-1.6-7.8c0-1.9,0.2-3.6,0.7-5.3c0.5-1.7,1.1-3.3,2-4.8 c0.9-1.5,1.9-2.8,3.1-4.1c1.2-1.2,2.6-2.3,4.1-3.1c1.5-0.9,3.1-1.6,4.8-2c1.7-0.5,3.5-0.7,5.4-0.7c1.8,0,3.5,0.2,5.2,0.6 c1.7,0.4,3.2,1,4.7,1.9c1.5,0.8,2.8,1.8,4,3c1.2,1.2,2.3,2.5,3.1,4c0.9,1.5,1.6,3.1,2.1,4.9c0.5,1.8,0.8,3.7,0.9,5.7v0 c0,0,0,0,0,0.1c0,0,0,0.1,0,0.1c0,0.7-0.3,1-1,1H332.9z M344.9,57.7c-1.5,0.4-3,1-4.3,1.9c-1.3,0.9-2.5,1.9-3.6,3.1 c-1,1.2-1.9,2.5-2.6,4c-0.7,1.5-1.2,3-1.5,4.6h32.7c-0.2-2-0.9-3.9-1.8-5.7c-1-1.7-2.2-3.2-3.7-4.5c-1.5-1.3-3.1-2.3-5-3 c-1.9-0.7-3.8-1.1-5.9-1.1c-0.7,0-1.4,0-2,0.1C346.6,57.3,345.8,57.5,344.9,57.7z"></path> <path class="st2" d="M390.6,57.5c0.3,0,0.6,0.1,0.8,0.3c0.2,0.2,0.3,0.4,0.3,0.8v1c0,0.4-0.1,0.7-0.3,0.9 c-0.2,0.2-0.5,0.3-0.8,0.3h-6.6v31.1c0,0.4-0.1,0.7-0.3,0.9c-0.2,0.2-0.5,0.3-0.8,0.3h-1.4c-0.7,0-1-0.4-1-1.1V60.8h-4.7 c-0.3,0-0.6-0.1-0.8-0.3c-0.2-0.2-0.3-0.5-0.3-0.9v-1c0-0.4,0.1-0.6,0.3-0.8c0.2-0.2,0.5-0.3,0.8-0.3h4.7v-6.2 c0-1.7,0.3-3.2,0.8-4.5c0.5-1.4,1.3-2.5,2.2-3.5c0.9-1,2.1-1.7,3.4-2.2c1.3-0.5,2.7-0.8,4.3-0.8c0.4,0,0.7,0.1,0.9,0.3 c0.2,0.2,0.3,0.5,0.3,0.8v1.3c0,0.3-0.1,0.6-0.3,0.8s-0.5,0.3-0.8,0.3c-1,0-2,0.2-2.9,0.5c-0.9,0.4-1.7,0.9-2.3,1.6 c-0.7,0.7-1.2,1.6-1.5,2.7c-0.4,1.1-0.6,2.4-0.6,3.9v4.9H390.6z"></path> <path class="st2" d="M396.8,73.7c0-1.8,0.2-3.6,0.7-5.3c0.5-1.7,1.2-3.3,2-4.8c0.9-1.5,1.9-2.8,3.1-4.1c1.2-1.2,2.6-2.3,4.1-3.1 c1.5-0.9,3.1-1.6,4.8-2c1.7-0.5,3.5-0.7,5.3-0.7c1.8,0,3.6,0.2,5.3,0.7c1.7,0.5,3.3,1.2,4.8,2c1.5,0.9,2.8,1.9,4.1,3.1 c1.2,1.2,2.3,2.6,3.2,4.1c0.9,1.5,1.6,3.1,2,4.8c0.5,1.7,0.7,3.5,0.7,5.3c0,1.8-0.2,3.6-0.7,5.3c-0.5,1.7-1.2,3.3-2,4.8 c-0.9,1.5-1.9,2.8-3.2,4.1c-1.2,1.2-2.6,2.3-4.1,3.1c-1.5,0.9-3.1,1.6-4.8,2c-1.7,0.5-3.5,0.7-5.3,0.7c-1.8,0-3.6-0.2-5.3-0.7 c-1.7-0.5-3.3-1.2-4.8-2c-1.5-0.9-2.8-1.9-4.1-3.1c-1.2-1.2-2.3-2.6-3.1-4.1c-0.9-1.5-1.6-3.1-2-4.8 C397,77.3,396.8,75.6,396.8,73.7z M400.5,73.7c0,1.5,0.2,2.9,0.6,4.3c0.4,1.4,0.9,2.7,1.6,3.9c0.7,1.2,1.5,2.4,2.5,3.4 c1,1,2.1,1.9,3.3,2.6c1.2,0.7,2.5,1.3,3.9,1.7c1.4,0.4,2.8,0.6,4.3,0.6c2.3,0,4.4-0.4,6.4-1.3c2-0.9,3.8-2,5.3-3.5 c1.5-1.5,2.7-3.2,3.6-5.3c0.9-2,1.3-4.2,1.3-6.5c0-2.2-0.4-4.4-1.3-6.4c-0.9-2-2-3.8-3.5-5.3c-1.5-1.5-3.2-2.7-5.2-3.6 c-2-0.9-4.1-1.4-6.4-1.4s-4.4,0.4-6.4,1.3c-2,0.9-3.8,2.1-5.2,3.6c-1.5,1.5-2.7,3.3-3.5,5.3C400.9,69.3,400.5,71.5,400.5,73.7z"></path> <path class="st2" d="M442.6,73.7c0-1.8,0.2-3.6,0.7-5.3c0.5-1.7,1.2-3.3,2-4.8c0.9-1.5,1.9-2.8,3.1-4.1c1.2-1.2,2.6-2.3,4.1-3.1 c1.5-0.9,3.1-1.6,4.8-2c1.7-0.5,3.5-0.7,5.3-0.7c1.8,0,3.6,0.2,5.3,0.7c1.7,0.5,3.3,1.2,4.8,2c1.5,0.9,2.8,1.9,4.1,3.1 c1.2,1.2,2.3,2.6,3.2,4.1c0.9,1.5,1.6,3.1,2,4.8c0.5,1.7,0.7,3.5,0.7,5.3c0,1.8-0.2,3.6-0.7,5.3c-0.5,1.7-1.2,3.3-2,4.8 c-0.9,1.5-1.9,2.8-3.2,4.1c-1.2,1.2-2.6,2.3-4.1,3.1c-1.5,0.9-3.1,1.6-4.8,2c-1.7,0.5-3.5,0.7-5.3,0.7c-1.8,0-3.6-0.2-5.3-0.7 c-1.7-0.5-3.3-1.2-4.8-2c-1.5-0.9-2.8-1.9-4.1-3.1c-1.2-1.2-2.3-2.6-3.1-4.1c-0.9-1.5-1.6-3.1-2-4.8 C442.8,77.3,442.6,75.6,442.6,73.7z M446.2,73.7c0,1.5,0.2,2.9,0.6,4.3c0.4,1.4,0.9,2.7,1.6,3.9c0.7,1.2,1.5,2.4,2.5,3.4 c1,1,2.1,1.9,3.3,2.6c1.2,0.7,2.5,1.3,3.9,1.7c1.4,0.4,2.8,0.6,4.3,0.6c2.3,0,4.4-0.4,6.4-1.3c2-0.9,3.8-2,5.3-3.5 c1.5-1.5,2.7-3.2,3.6-5.3c0.9-2,1.3-4.2,1.3-6.5c0-2.2-0.4-4.4-1.3-6.4c-0.9-2-2-3.8-3.5-5.3c-1.5-1.5-3.2-2.7-5.2-3.6 c-2-0.9-4.1-1.4-6.4-1.4c-2.3,0-4.4,0.4-6.4,1.3c-2,0.9-3.8,2.1-5.2,3.6c-1.5,1.5-2.7,3.3-3.5,5.3 C446.7,69.3,446.2,71.5,446.2,73.7z"></path> <path class="st2" d="M528.9,92c0,0.7-0.3,1-1,1h-1.6c-0.7,0-1-0.3-1-1v-5.1l-0.1-2.3c-0.4,0.7-0.8,1.4-1.3,2 c-0.5,0.7-1,1.3-1.5,1.8c-1.8,1.7-3.9,3-6.1,3.9c-2.3,0.9-4.7,1.4-7.2,1.4c-1.8,0-3.6-0.2-5.3-0.7c-1.7-0.5-3.3-1.2-4.8-2 c-1.5-0.9-2.8-1.9-4.1-3.1c-1.2-1.2-2.3-2.6-3.1-4c-0.9-1.5-1.6-3.1-2-4.8c-0.5-1.7-0.7-3.5-0.7-5.3c0-1.8,0.2-3.6,0.7-5.3 c0.5-1.7,1.2-3.3,2-4.8c0.9-1.5,1.9-2.8,3.1-4.1c1.2-1.2,2.6-2.3,4.1-3.1c1.5-0.9,3.1-1.6,4.8-2c1.7-0.5,3.5-0.7,5.3-0.7 c1.3,0,2.5,0.1,3.8,0.4c1.2,0.3,2.4,0.6,3.5,1.1c1.1,0.5,2.2,1.1,3.3,1.7c1,0.7,2,1.4,2.9,2.2c0.6,0.6,1,1.1,1.4,1.7 c0.4,0.6,0.9,1.2,1.4,2V43.2c0-0.1,0.1-0.3,0.2-0.4c0.1-0.1,0.2-0.2,0.4-0.2l2.2,0c0.6,0,0.8,0.3,0.8,0.8V92z M492.8,73.7 c0,2.2,0.4,4.4,1.3,6.4c0.8,2,2,3.8,3.5,5.3c1.5,1.5,3.2,2.7,5.2,3.6c2,0.9,4.1,1.3,6.3,1.3c2.3,0,4.4-0.4,6.4-1.3s3.8-2,5.3-3.5 s2.7-3.3,3.6-5.3c0.9-2,1.3-4.2,1.3-6.4c0-2.2-0.4-4.4-1.3-6.4c-0.9-2-2-3.8-3.5-5.3c-1.5-1.5-3.2-2.7-5.2-3.7 c-2-0.9-4.1-1.4-6.4-1.4c-2.3,0-4.4,0.4-6.4,1.3c-2,0.9-3.7,2.1-5.2,3.6c-1.5,1.5-2.6,3.3-3.5,5.3 C493.2,69.3,492.8,71.5,492.8,73.7z"></path> </g> </g> </svg> 